<svg xmlns="http://www.w3.org/2000/svg" viewBox="0 0 351.49 361.75"><defs><style>.cls-1,.cls-3{fill:none;stroke-miterlimit:10;stroke-width:2px;}.cls-1{stroke:#231f20;}.cls-2{font-size:45px;font-family:EuclidCircularB-Medium, Euclid Circular B;font-weight:500;}.cls-2,.cls-4{fill:#63c29e;}.cls-3{stroke:#63c29e;}</style></defs><g id="Layer_2" data-name="Layer 2"><g id="Layer_1-2" data-name="Layer 1"><circle class="cls-1" cx="175.74" cy="180.87" r="168.02"/><text class="cls-2" transform="translate(51.24 167.67) rotate(-76.49)">A</text><text class="cls-2" transform="translate(58.54 137.48) rotate(-63.16)">B</text><text class="cls-2" transform="matrix(0.66, -0.76, 0.76, 0.66, 69.85, 113.49)">O</text><text class="cls-2" transform="translate(92.52 87.36) rotate(-34.23)">U</text><text class="cls-2" transform="matrix(0.93, -0.37, 0.37, 0.93, 118.2, 70.13)">T</text><text class="cls-2" transform="translate(140.43 61.71) rotate(-14.08)"> </text><text class="cls-2" transform="translate(149.4 58.06) rotate(-3.39)">Q</text><text class="cls-2" transform="translate(184.45 55.7) rotate(12.32)">O</text><text class="cls-2" transform="matrix(0.88, 0.47, -0.47, 0.88, 218.12, 62.71)">O</text><text class="cls-2" transform="matrix(0.74, 0.68, -0.68, 0.74, 247.82, 78.52)">V</text><text class="cls-2" transform="translate(270.09 99.22) rotate(54.92)">E</text><text class="cls-2" transform="translate(284.03 118.87) rotate(65.96)">S</text><text class="cls-2" transform="translate(293.84 140.45) rotate(76.96)">T</text><circle class="cls-1" cx="175.74" cy="180.87" r="112.19"/><circle class="cls-3" cx="175.74" cy="180.87" r="168.02"/><text class="cls-2" transform="translate(300.25 194.08) rotate(103.51)">A</text><text class="cls-2" transform="translate(292.95 224.26) rotate(116.84)">B</text><text class="cls-2" transform="matrix(-0.66, 0.76, -0.76, -0.66, 281.64, 248.26)">O</text><text class="cls-2" transform="translate(258.97 274.39) rotate(145.77)">U</text><text class="cls-2" transform="matrix(-0.93, 0.37, -0.37, -0.93, 233.29, 291.61)">T</text><text class="cls-2" transform="translate(211.06 300.03) rotate(165.92)"> </text><text class="cls-2" transform="translate(202.09 303.69) rotate(176.61)">Q</text><text class="cls-2" transform="translate(167.04 306.04) rotate(-167.68)">O</text><text class="cls-2" transform="matrix(-0.88, -0.47, 0.47, -0.88, 133.37, 299.03)">O</text><text class="cls-2" transform="matrix(-0.74, -0.68, 0.68, -0.74, 103.67, 283.22)">V</text><text class="cls-2" transform="translate(81.41 262.53) rotate(-125.08)">E</text><text class="cls-2" transform="translate(67.46 242.88) rotate(-114.04)">S</text><text class="cls-2" transform="translate(57.65 221.3) rotate(-103.04)">T</text><circle class="cls-3" cx="175.74" cy="180.87" r="112.19"/><circle class="cls-4" cx="175.74" cy="180.87" r="76.05"/></g></g></svg>