<svg width="20" height="20" viewBox="0 0 20 20" fill="none" xmlns="http://www.w3.org/2000/svg">
<path d="M7.97422 15.6834C7.81589 15.6834 7.65755 15.6251 7.53255 15.5001L2.47422 10.4418C2.23255 10.2001 2.23255 9.8001 2.47422 9.55843L7.53255 4.5001C7.77422 4.25843 8.17422 4.25843 8.41589 4.5001C8.65755 4.74176 8.65755 5.14176 8.41589 5.38343L3.79922 10.0001L8.41589 14.6168C8.65755 14.8584 8.65755 15.2584 8.41589 15.5001C8.29922 15.6251 8.13255 15.6834 7.97422 15.6834Z" fill="white"/>
<path d="M17.0836 10.625H3.05859C2.71693 10.625 2.43359 10.3417 2.43359 10C2.43359 9.65833 2.71693 9.375 3.05859 9.375H17.0836C17.4253 9.375 17.7086 9.65833 17.7086 10C17.7086 10.3417 17.4253 10.625 17.0836 10.625Z" fill="white"/>
</svg>
