<svg xmlns="http://www.w3.org/2000/svg" viewBox="0 0 338.12 426.87"><defs><style>.cls-1,.cls-3{fill:none;stroke-miterlimit:10;stroke-width:2px;}.cls-1{stroke:#231f20;}.cls-2{font-size:45px;font-family:EuclidCircularB-Medium, Euclid Circular B;font-weight:500;}.cls-2,.cls-4{fill:#63c29e;}.cls-3{stroke:#63c29e;}</style></defs><g id="Layer_2" data-name="Layer 2"><g id="Layer_1-2" data-name="Layer 1"><circle class="cls-1" cx="169.06" cy="213.44" r="168.02"/><text class="cls-2" transform="matrix(0.51, -0.86, 0.86, 0.51, 52.93, 165.92)">O</text><text class="cls-2" transform="matrix(0.71, -0.7, 0.7, 0.71, 70.51, 136.15)">U</text><text class="cls-2" transform="translate(92.47 114.65) rotate(-31.07)">R</text><text class="cls-2" transform="matrix(0.92, -0.38, 0.38, 0.92, 116.43, 100.89)"> </text><text class="cls-2" transform="matrix(0.98, -0.2, 0.2, 0.98, 124.64, 95.83)">M</text><text class="cls-2" transform="translate(162.44 89.27) rotate(-0.06)">I</text><text class="cls-2" transform="translate(175 88.76) rotate(8.59)">S</text><text class="cls-2" transform="translate(198.84 92.25) rotate(19.68)">S</text><text class="cls-2" transform="translate(221.99 100.96) rotate(28.14)">I</text><text class="cls-2" transform="matrix(0.78, 0.63, -0.63, 0.78, 233.19, 105.54)">O</text><text class="cls-2" transform="matrix(0.58, 0.82, -0.82, 0.58, 260.05, 127.08)">N</text><circle class="cls-1" cx="169.06" cy="213.44" r="112.19"/><circle class="cls-3" cx="169.06" cy="213.44" r="168.02"/><text class="cls-2" transform="matrix(-0.51, 0.86, -0.86, -0.51, 285.19, 260.95)">O</text><text class="cls-2" transform="matrix(-0.71, 0.7, -0.7, -0.71, 267.61, 290.72)">U</text><text class="cls-2" transform="translate(245.66 312.22) rotate(148.93)">R</text><text class="cls-2" transform="matrix(-0.92, 0.38, -0.38, -0.92, 221.69, 325.98)"> </text><text class="cls-2" transform="translate(213.48 331.04) rotate(168.36)">M</text><text class="cls-2" transform="translate(175.68 337.6) rotate(179.94)">I</text><text class="cls-2" transform="matrix(-0.99, -0.15, 0.15, -0.99, 163.12, 338.11)">S</text><text class="cls-2" transform="translate(139.28 334.63) rotate(-160.32)">S</text><text class="cls-2" transform="translate(116.13 325.91) rotate(-151.86)">I</text><text class="cls-2" transform="matrix(-0.78, -0.63, 0.63, -0.78, 104.93, 321.33)">O</text><text class="cls-2" transform="matrix(-0.58, -0.82, 0.82, -0.58, 78.07, 299.79)">N</text><circle class="cls-3" cx="169.06" cy="213.44" r="112.19"/><circle class="cls-4" cx="169.06" cy="213.44" r="76.05"/></g></g></svg>