<svg width="18" height="18" viewBox="0 0 18 18" fill="none" xmlns="http://www.w3.org/2000/svg">
<path opacity="0.4" d="M2.75195 1.875V10.8525C2.75195 11.5875 3.09695 12.285 3.68945 12.7275L7.59695 15.6525C8.42945 16.275 9.57695 16.275 10.4094 15.6525L14.3169 12.7275C14.9094 12.285 15.2544 11.5875 15.2544 10.8525V1.875H2.75195Z" fill="#5DC9A0"/>
<path d="M16.5 2.4375H1.5C1.1925 2.4375 0.9375 2.1825 0.9375 1.875C0.9375 1.5675 1.1925 1.3125 1.5 1.3125H16.5C16.8075 1.3125 17.0625 1.5675 17.0625 1.875C17.0625 2.1825 16.8075 2.4375 16.5 2.4375Z" fill="#5DC9A0"/>
<path d="M12 6.5625H6C5.6925 6.5625 5.4375 6.3075 5.4375 6C5.4375 5.6925 5.6925 5.4375 6 5.4375H12C12.3075 5.4375 12.5625 5.6925 12.5625 6C12.5625 6.3075 12.3075 6.5625 12 6.5625Z" fill="#5DC9A0"/>
<path d="M12 10.3125H6C5.6925 10.3125 5.4375 10.0575 5.4375 9.75C5.4375 9.4425 5.6925 9.1875 6 9.1875H12C12.3075 9.1875 12.5625 9.4425 12.5625 9.75C12.5625 10.0575 12.3075 10.3125 12 10.3125Z" fill="#5DC9A0"/>
</svg>
