<svg width="16" height="16" viewBox="0 0 16 16" fill="none" xmlns="http://www.w3.org/2000/svg">
    <circle cx="8" cy="8" r="8" fill="#00325C"/>
    <path d="M7.78988 8.88672L7.59788 7.09472V4.57129H8.61274V7.09472L8.4116 8.88672H7.78988ZM8.10074 11.1359C7.88741 11.1359 7.7015 11.0597 7.54302 10.9073C7.39064 10.7488 7.31445 10.5599 7.31445 10.3404C7.31445 10.1271 7.39064 9.9412 7.54302 9.78272C7.7015 9.62424 7.88741 9.545 8.10074 9.545C8.32017 9.545 8.50607 9.62424 8.65845 9.78272C8.81693 9.9412 8.89617 10.1271 8.89617 10.3404C8.89617 10.5599 8.81693 10.7488 8.65845 10.9073C8.50607 11.0597 8.32017 11.1359 8.10074 11.1359Z" fill="white"/>
</svg>