<svg width="20" height="20" viewBox="0 0 20 20" fill="none" xmlns="http://www.w3.org/2000/svg">
<path opacity="0.4" d="M18.3327 7.5V13.7167C18.3327 15.625 16.7827 17.1667 14.8743 17.1667H5.12435C3.21602 17.1667 1.66602 15.625 1.66602 13.7167V7.5H18.3327Z" fill="#5DC9A0"/>
<path d="M18.3327 6.2835V7.50016H1.66602V6.2835C1.66602 4.37516 3.21602 2.8335 5.12435 2.8335H14.8743C16.7827 2.8335 18.3327 4.37516 18.3327 6.2835Z" fill="#5DC9A0"/>
<path d="M6.66667 14.375H5C4.65833 14.375 4.375 14.0917 4.375 13.75C4.375 13.4083 4.65833 13.125 5 13.125H6.66667C7.00833 13.125 7.29167 13.4083 7.29167 13.75C7.29167 14.0917 7.00833 14.375 6.66667 14.375Z" fill="#5DC9A0"/>
<path d="M12.0833 14.375H8.75C8.40833 14.375 8.125 14.0917 8.125 13.75C8.125 13.4083 8.40833 13.125 8.75 13.125H12.0833C12.425 13.125 12.7083 13.4083 12.7083 13.75C12.7083 14.0917 12.425 14.375 12.0833 14.375Z" fill="#5DC9A0"/>
</svg>
