<svg width="41" height="40" viewBox="0 0 41 40" fill="none" xmlns="http://www.w3.org/2000/svg">
<path d="M22.4538 3.91605C21.3441 2.02798 18.6636 2.02798 17.5539 3.91605L0.411565 33.0827C-0.731017 35.0268 0.640697 37.5 2.86148 37.5H37.1462C39.367 37.5 40.7387 35.0268 39.5962 33.0827L22.4538 3.91605ZM20 12.5C21.3385 12.5 22.3844 13.6557 22.2512 14.9876L21.3744 23.7562C21.3038 24.4623 20.7096 25 20 25C19.2904 25 18.6962 24.4623 18.6256 23.7562L17.7488 14.9876C17.6156 13.6557 18.6615 12.5 20 12.5ZM20.0039 27.5C21.3846 27.5 22.5039 28.6193 22.5039 30C22.5039 31.3807 21.3846 32.5 20.0039 32.5C18.6231 32.5 17.5039 31.3807 17.5039 30C17.5039 28.6193 18.6231 27.5 20.0039 27.5Z" fill="#1E2757"/>
</svg>
