<svg width="26" height="26" viewBox="0 0 26 26" fill="none" xmlns="http://www.w3.org/2000/svg">
<path d="M11.9904 17.6777L15.4375 21.1249L18.8846 17.6777" stroke="#00325C" stroke-width="2" stroke-linecap="round" stroke-linejoin="round"/>
<path d="M15.4375 13V21.125" stroke="#00325C" stroke-width="2" stroke-linecap="round" stroke-linejoin="round"/>
<path d="M9.74996 21.125H7.31246C6.50589 21.1242 5.70871 20.9519 4.97383 20.6194C4.23896 20.287 3.58319 19.8021 3.05007 19.1968C2.51694 18.5916 2.11864 17.8798 1.88162 17.1089C1.64459 16.3379 1.57426 15.5254 1.67528 14.7251C1.7763 13.9249 2.04638 13.1553 2.46757 12.4675C2.88876 11.7796 3.45144 11.1892 4.11826 10.7354C4.78509 10.2817 5.5408 9.97492 6.33524 9.83555C7.12968 9.69618 7.94467 9.72738 8.72613 9.92707" stroke="#00325C" stroke-width="2" stroke-linecap="round" stroke-linejoin="round"/>
<path d="M8.125 13.0002C8.12513 11.7128 8.43116 10.4439 9.01788 9.298C9.6046 8.1521 10.4552 7.16202 11.4996 6.40935C12.544 5.65667 13.7524 5.16294 15.025 4.96885C16.2977 4.77476 17.5982 4.88586 18.8195 5.29299C20.0408 5.70012 21.1479 6.39163 22.0495 7.31054C22.9512 8.22945 23.6215 9.34945 24.0054 10.5783C24.3893 11.8071 24.4756 13.1095 24.2574 14.3782C24.0392 15.647 23.5226 16.8457 22.7502 17.8757" stroke="#00325C" stroke-width="2" stroke-linecap="round" stroke-linejoin="round"/>
</svg>
