<svg width="32" height="32" viewBox="0 0 32 32" fill="none" xmlns="http://www.w3.org/2000/svg">
<circle cx="16" cy="16" r="16" fill="#256FF6" fill-opacity="0.05"/>
<path d="M20.4986 12.37C20.4536 12.3625 20.4011 12.3625 20.3561 12.37C19.3211 12.3325 18.4961 11.485 18.4961 10.435C18.4961 9.3625 19.3586 8.5 20.4311 8.5C21.5036 8.5 22.3661 9.37 22.3661 10.435C22.3586 11.485 21.5336 12.3325 20.4986 12.37Z" stroke="#256FF6" stroke-width="1.2" stroke-linecap="round" stroke-linejoin="round"/>
<path d="M19.7256 17.8301C20.7531 18.0026 21.8856 17.8226 22.6806 17.2901C23.7381 16.5851 23.7381 15.4301 22.6806 14.7251C21.8781 14.1926 20.7306 14.0126 19.7031 14.1926" stroke="#256FF6" stroke-width="1.2" stroke-linecap="round" stroke-linejoin="round"/>
<path d="M11.4769 12.37C11.5219 12.3625 11.5744 12.3625 11.6194 12.37C12.6544 12.3325 13.4794 11.485 13.4794 10.435C13.4794 9.3625 12.6169 8.5 11.5444 8.5C10.4719 8.5 9.60938 9.37 9.60938 10.435C9.61687 11.485 10.4419 12.3325 11.4769 12.37Z" stroke="#256FF6" stroke-width="1.2" stroke-linecap="round" stroke-linejoin="round"/>
<path d="M12.2481 17.8301C11.2206 18.0026 10.0881 17.8226 9.29313 17.2901C8.23563 16.5851 8.23563 15.4301 9.29313 14.7251C10.0956 14.1926 11.2431 14.0126 12.2706 14.1926" stroke="#256FF6" stroke-width="1.2" stroke-linecap="round" stroke-linejoin="round"/>
<path d="M15.9986 17.9716C15.9536 17.9641 15.9011 17.9641 15.8561 17.9716C14.8211 17.9341 13.9961 17.0866 13.9961 16.0366C13.9961 14.9641 14.8586 14.1016 15.9311 14.1016C17.0036 14.1016 17.8661 14.9716 17.8661 16.0366C17.8586 17.0866 17.0336 17.9416 15.9986 17.9716Z" stroke="#256FF6" stroke-width="1.2" stroke-linecap="round" stroke-linejoin="round"/>
<path d="M13.8166 20.3345C12.7591 21.0395 12.7591 22.1945 13.8166 22.8995C15.0166 23.702 16.9816 23.702 18.1816 22.8995C19.2391 22.1945 19.2391 21.0395 18.1816 20.3345C16.9891 19.5395 15.0166 19.5395 13.8166 20.3345Z" stroke="#256FF6" stroke-width="1.2" stroke-linecap="round" stroke-linejoin="round"/>
</svg>
