<svg width="10" height="10" viewBox="0 0 10 10" fill="none" xmlns="http://www.w3.org/2000/svg">
<path d="M6.66732 5.37516V7.12516C6.66732 8.5835 6.08398 9.16683 4.62565 9.16683H2.87565C1.41732 9.16683 0.833984 8.5835 0.833984 7.12516V5.37516C0.833984 3.91683 1.41732 3.3335 2.87565 3.3335H4.62565C6.08398 3.3335 6.66732 3.91683 6.66732 5.37516Z" stroke="#5DC9A0" stroke-width="0.8" stroke-linecap="round" stroke-linejoin="round"/>
<path d="M9.16732 2.87516V4.62516C9.16732 6.0835 8.58398 6.66683 7.12565 6.66683H6.66732V5.37516C6.66732 3.91683 6.08398 3.3335 4.62565 3.3335H3.33398V2.87516C3.33398 1.41683 3.91732 0.833496 5.37565 0.833496H7.12565C8.58398 0.833496 9.16732 1.41683 9.16732 2.87516Z" stroke="#5DC9A0" stroke-width="0.8" stroke-linecap="round" stroke-linejoin="round"/>
</svg>
