<svg width="18" height="18" viewBox="0 0 18 18" fill="none" xmlns="http://www.w3.org/2000/svg">
<path opacity="0.4" d="M12.1425 1.5H5.8575C3.1275 1.5 1.5 3.1275 1.5 5.8575V12.135C1.5 14.8725 3.1275 16.5 5.8575 16.5H12.135C14.865 16.5 16.4925 14.8725 16.4925 12.1425V5.8575C16.5 3.1275 14.8725 1.5 12.1425 1.5Z" fill="#5DC9A0"/>
<path d="M10.6941 9L9.56164 8.6025V6.06H9.83164C10.4391 6.06 10.9341 6.5925 10.9341 7.245C10.9341 7.5525 11.1891 7.8075 11.4966 7.8075C11.8041 7.8075 12.0591 7.5525 12.0591 7.245C12.0591 5.97 11.0616 4.935 9.83164 4.935H9.56164V4.5C9.56164 4.1925 9.30664 3.9375 8.99914 3.9375C8.69164 3.9375 8.43664 4.1925 8.43664 4.5V4.935H7.94914C6.83914 4.935 5.93164 5.8725 5.93164 7.02C5.93164 8.3625 6.71164 8.79 7.30414 9L8.43664 9.3975V11.9325H8.16664C7.55914 11.9325 7.06414 11.4 7.06414 10.7475C7.06414 10.44 6.80914 10.185 6.50164 10.185C6.19414 10.185 5.93914 10.44 5.93914 10.7475C5.93914 12.0225 6.93664 13.0575 8.16664 13.0575H8.43664V13.5C8.43664 13.8075 8.69164 14.0625 8.99914 14.0625C9.30664 14.0625 9.56164 13.8075 9.56164 13.5V13.065H10.0491C11.1591 13.065 12.0666 12.1275 12.0666 10.98C12.0591 9.63 11.2791 9.2025 10.6941 9ZM7.67914 7.9425C7.29664 7.8075 7.06414 7.68 7.06414 7.0275C7.06414 6.495 7.46164 6.0675 7.95664 6.0675H8.44414V8.2125L7.67914 7.9425ZM10.0491 11.94H9.56164V9.795L10.3191 10.0575C10.7016 10.1925 10.9341 10.32 10.9341 10.9725C10.9341 11.505 10.5366 11.94 10.0491 11.94Z" fill="#5DC9A0"/>
</svg>
