<svg width="168" height="168" viewBox="0 0 168 168" fill="none" xmlns="http://www.w3.org/2000/svg">
<g opacity="0.6">
<path d="M81.1391 87.3755H75.4414V140.491H81.1391V87.3755Z" fill="#48576C"/>
<path d="M98.8362 40.3364H57.7444C54.7707 40.3364 51.826 40.9221 49.0786 42.0602C46.3312 43.1982 43.8349 44.8662 41.7321 46.9689C39.6293 49.0717 37.9613 51.5681 36.8233 54.3155C35.6853 57.0629 35.0996 60.0075 35.0996 62.9813V92.8695H121.481V62.9813C121.481 60.0075 120.895 57.0629 119.757 54.3155C118.619 51.5681 116.951 49.0717 114.849 46.9689C112.746 44.8662 110.249 43.1982 107.502 42.0602C104.755 40.9221 101.81 40.3364 98.8362 40.3364V40.3364Z" fill="#CAD1DB"/>
<path d="M98.8363 40.3364C104.842 40.3364 110.602 42.7222 114.849 46.969C119.095 51.2157 121.481 56.9755 121.481 62.9813V92.8695H76.1914V62.9813C76.1914 60.0075 76.7771 57.0629 77.9151 54.3155C79.0532 51.5681 80.7212 49.0717 82.8239 46.9689C84.9267 44.8662 87.4231 43.1982 90.1705 42.0602C92.9179 40.9221 95.8625 40.3364 98.8363 40.3364Z" fill="#95A4B8"/>
<path d="M121.481 92.8696H76.1914L92.4127 110.269C99.2004 117.55 114.841 123.452 127.348 123.452H127.348C139.854 123.452 144.49 117.55 137.702 110.269L121.481 92.8696Z" fill="#CAD1DB"/>
<path d="M121.482 93.0836C121.455 93.0835 121.427 93.0783 121.402 93.0681C102.391 85.4372 93.1761 73.0201 88.7938 63.9472C84.0435 54.1125 83.7893 45.9676 83.7872 45.8865C83.786 45.8377 83.8015 45.7899 83.8312 45.7511C83.8608 45.7123 83.9029 45.6848 83.9503 45.6732C83.9977 45.6615 84.0476 45.6664 84.0919 45.687C84.1362 45.7076 84.1721 45.7427 84.1937 45.7865C88.1837 53.913 95.5662 64.3918 108.076 68.1618C115.548 70.4134 121.379 69.1793 121.436 69.1663C121.491 69.155 121.548 69.1658 121.596 69.1964C121.643 69.2271 121.676 69.2751 121.688 69.33C121.7 69.385 121.69 69.4426 121.66 69.4902C121.63 69.5378 121.583 69.5717 121.528 69.5845C121.469 69.5975 115.531 70.8554 107.952 68.5717C101.118 66.512 91.5347 61.0809 84.2898 46.9341C84.9363 52.7902 86.5937 58.4898 89.1882 63.7795C93.5391 72.7779 102.687 85.0947 121.562 92.6708C121.608 92.6893 121.646 92.7234 121.67 92.767C121.694 92.8107 121.702 92.8613 121.692 92.9101C121.683 92.9589 121.657 93.0029 121.618 93.0346C121.58 93.0662 121.532 93.0835 121.482 93.0835V93.0836Z" fill="white"/>
<path d="M96.0395 93.0837C96.0094 93.0837 95.9797 93.0774 95.9522 93.0652C95.9248 93.0529 95.9002 93.035 95.8802 93.0126C95.7288 92.8436 80.7807 75.792 83.7884 45.8599C83.7947 45.8037 83.8227 45.7522 83.8664 45.7164C83.9102 45.6806 83.9663 45.6633 84.0226 45.6683C84.0506 45.6711 84.0777 45.6793 84.1025 45.6926C84.1273 45.7058 84.1492 45.7239 84.167 45.7456C84.1848 45.7674 84.1981 45.7924 84.2062 45.8194C84.2143 45.8463 84.217 45.8746 84.2141 45.9025C82.653 61.4398 85.9944 73.3426 89.0723 80.5921C92.4079 88.4484 96.1612 92.6847 96.1988 92.7265C96.2265 92.7573 96.2446 92.7954 96.251 92.8363C96.2575 92.8772 96.2519 92.919 96.235 92.9568C96.2182 92.9946 96.1908 93.0267 96.1561 93.0492C96.1214 93.0717 96.0809 93.0837 96.0395 93.0837V93.0837Z" fill="white"/>
<path d="M78.2897 93.0837C78.2384 93.0836 78.1889 93.065 78.1501 93.0315C78.1114 92.998 78.0859 92.9516 78.0785 92.9009C74.5142 68.8407 83.7087 46.0276 83.8019 45.8C83.8235 45.7476 83.8651 45.7059 83.9174 45.684C83.9697 45.6622 84.0286 45.662 84.0811 45.6834C84.1336 45.7049 84.1754 45.7463 84.1974 45.7986C84.2194 45.8509 84.2197 45.9098 84.1984 45.9623C84.1055 46.189 74.9554 68.8976 78.5017 92.8382C78.5059 92.866 78.5045 92.8943 78.4977 92.9216C78.491 92.9489 78.4788 92.9745 78.4621 92.9971C78.4453 93.0197 78.4243 93.0387 78.4001 93.0532C78.376 93.0676 78.3493 93.0771 78.3215 93.0811C78.3109 93.0828 78.3003 93.0837 78.2897 93.0837V93.0837Z" fill="white"/>
<path d="M95.3738 92.2724C95.3281 92.2725 95.2835 92.2578 95.2467 92.2306C95.1681 92.1725 87.3298 86.444 82.0279 87.8266C80.3338 88.2682 79.0624 89.404 78.2495 91.2027C78.226 91.2545 78.183 91.2949 78.1299 91.3149C78.0767 91.335 78.0177 91.3331 77.9659 91.3097C77.9141 91.2863 77.8737 91.2433 77.8537 91.1901C77.8336 91.137 77.8355 91.078 77.8589 91.0262C78.7279 89.1037 80.0945 87.888 81.9204 87.4121C86.9701 86.096 93.9131 90.7602 95.2747 91.7233C95.6398 90.7721 96.1905 89.903 96.8949 89.1668C97.5992 88.4305 98.4431 87.8419 99.3773 87.4351C103.807 85.4779 109.752 87.2624 111.62 87.9148C109.446 84.1828 108.78 80.6348 109.642 77.3616C110.999 72.2102 115.754 69.5446 115.802 69.5182C115.852 69.4908 115.91 69.4844 115.965 69.5002C116.02 69.516 116.066 69.5529 116.093 69.6027C116.12 69.6525 116.127 69.7112 116.111 69.7657C116.095 69.8203 116.058 69.8664 116.009 69.8938C115.962 69.9193 111.363 72.5021 110.056 77.4749C109.186 80.782 109.941 84.3952 112.298 88.2138C112.322 88.2521 112.333 88.297 112.33 88.3419C112.326 88.3868 112.309 88.4295 112.28 88.464C112.251 88.4985 112.212 88.5229 112.168 88.5338C112.124 88.5448 112.078 88.5417 112.037 88.5249C111.963 88.4957 104.59 85.5988 99.5491 87.827C98.6254 88.2319 97.7954 88.8235 97.1113 89.5646C96.4273 90.3058 95.9039 91.1804 95.5742 92.1336C95.5589 92.1744 95.5315 92.2095 95.4957 92.2343C95.4599 92.2591 95.4174 92.2724 95.3738 92.2724V92.2724Z" fill="white"/>
<path d="M91.6875 86.6379C91.654 86.6379 91.621 86.6301 91.591 86.615C91.5611 86.5998 91.5351 86.5779 91.5152 86.5509C91.4667 86.4848 86.5851 79.9367 82.176 80.3963C80.3456 80.5857 78.8258 81.9746 77.6586 84.5239C77.6348 84.5753 77.5916 84.6151 77.5385 84.6347C77.4854 84.6543 77.4267 84.6521 77.3752 84.6286C77.3237 84.6051 77.2836 84.5621 77.2637 84.5091C77.2438 84.4561 77.2456 84.3974 77.2689 84.3458C78.5042 81.6484 80.1402 80.1763 82.1325 79.9702C86.1255 79.5545 90.2954 84.329 91.5131 85.8492C91.7427 83.3082 92.649 81.5413 94.2101 80.5937C96.8117 79.0146 100.415 80.1788 101.657 80.6614C100.586 77.1728 100.749 74.2986 102.141 72.1139C104.235 68.8277 108.312 68.3175 108.485 68.297C108.541 68.2914 108.597 68.3078 108.641 68.3429C108.686 68.3779 108.715 68.4288 108.722 68.4847C108.729 68.5411 108.713 68.5978 108.677 68.6424C108.642 68.687 108.591 68.7159 108.535 68.7227C108.494 68.7273 104.482 69.2329 102.5 72.3468C101.124 74.5093 101.024 77.4104 102.204 80.9696C102.217 81.0092 102.219 81.0517 102.208 81.0919C102.197 81.1322 102.175 81.1684 102.144 81.1963C102.113 81.2243 102.075 81.2426 102.033 81.2488C101.992 81.2551 101.95 81.249 101.912 81.2314C101.867 81.2109 97.3587 79.1831 94.4309 80.9604C92.8865 81.8989 92.0355 83.7406 91.9012 86.4342C91.8985 86.4891 91.8749 86.5408 91.8351 86.5788C91.7953 86.6167 91.7425 86.6378 91.6875 86.6379V86.6379Z" fill="white"/>
<path d="M88.4168 79.7786C88.3792 79.7786 88.3422 79.7687 88.3096 79.7498C88.277 79.7309 88.2499 79.7038 88.2312 79.6711C88.1977 79.6126 84.8525 73.8699 81.5019 73.8699C81.471 73.8699 81.4405 73.8703 81.4095 73.8716C80.0136 73.9159 78.7861 74.9903 77.7616 77.0654C77.7491 77.0906 77.7318 77.1131 77.7106 77.1316C77.6895 77.1501 77.6649 77.1643 77.6382 77.1733C77.6116 77.1823 77.5834 77.186 77.5554 77.1841C77.5273 77.1822 77.4999 77.1748 77.4747 77.1624C77.4495 77.1499 77.427 77.1326 77.4084 77.1114C77.3899 77.0903 77.3758 77.0657 77.3668 77.039C77.3577 77.0124 77.3541 76.9842 77.3559 76.9562C77.3578 76.9281 77.3652 76.9007 77.3777 76.8755C78.4775 74.6478 79.8296 73.4931 81.3961 73.4433C84.3131 73.358 87.0623 77.0712 88.1366 78.7093C88.0392 76.4887 88.5712 74.966 89.7229 74.1764C91.6119 72.8825 94.5648 73.9598 95.6881 74.4524C94.6539 71.0399 94.7739 68.4509 96.046 66.7526C97.5992 64.6787 100.272 64.7381 100.387 64.7385C100.444 64.7404 100.497 64.7646 100.536 64.806C100.575 64.8473 100.596 64.9024 100.594 64.9591C100.592 65.0158 100.568 65.0695 100.527 65.1085C100.486 65.1474 100.431 65.1684 100.374 65.1668C100.35 65.1663 97.8033 65.1174 96.386 67.0127C95.1477 68.6696 95.0992 71.2854 96.2422 74.7866C96.2554 74.8269 96.2563 74.8703 96.2447 74.9111C96.2332 74.952 96.2098 74.9885 96.1775 75.016C96.1452 75.0436 96.1054 75.0609 96.0632 75.0657C96.0211 75.0706 95.9784 75.0628 95.9407 75.0433C95.9018 75.0237 92.0727 73.0837 89.9646 74.5302C88.8074 75.324 88.3583 77.0101 88.6297 79.5415C88.635 79.5904 88.6233 79.6396 88.5966 79.6809C88.5699 79.7222 88.5297 79.753 88.4829 79.7682C88.4616 79.7751 88.4393 79.7787 88.4168 79.7786V79.7786Z" fill="white"/>
<path d="M85.4559 70.3957C85.413 70.3958 85.371 70.3829 85.3355 70.3587C85.3 70.3345 85.2726 70.3002 85.2569 70.2602C84.2118 67.6076 83.0797 66.2534 81.892 66.2355C79.9738 66.2066 78.4089 69.755 78.3934 69.791C78.3709 69.843 78.3286 69.884 78.2759 69.9049C78.2232 69.9259 78.1644 69.9251 78.1123 69.9027C78.0602 69.8804 78.019 69.8383 77.9979 69.7857C77.9767 69.7331 77.9773 69.6742 77.9995 69.622C78.0672 69.4652 79.681 65.7876 81.8983 65.8072C83.1124 65.8252 84.2377 66.9493 85.251 69.152C85.3171 67.8999 85.6182 65.9072 86.8385 65.4007C87.8405 64.9846 89.1566 65.6215 90.8544 67.3424C90.425 65.578 89.6538 61.514 91.312 60.3568C92.3721 59.6183 94.1009 60.1641 96.5992 62.0259C96.6448 62.0598 96.6751 62.1105 96.6833 62.1667C96.6915 62.2229 96.6771 62.2801 96.6432 62.3257C96.6092 62.3713 96.5586 62.4015 96.5023 62.4098C96.4461 62.418 96.3889 62.4036 96.3433 62.3696C94.0762 60.6805 92.4223 60.1038 91.557 60.7081C90.0293 61.7737 90.9849 66.3626 91.4822 68.0408C91.4959 68.0873 91.4934 68.1371 91.4752 68.182C91.4569 68.2269 91.424 68.2642 91.3817 68.288C91.3395 68.3117 91.2904 68.3204 91.2426 68.3127C91.1947 68.3049 91.1509 68.2812 91.1183 68.2453C89.3243 66.2701 87.9007 65.4229 87.0033 65.7959C85.7583 66.3124 85.6186 69.1294 85.6696 70.1711C85.6722 70.2218 85.6567 70.2717 85.6258 70.3119C85.5949 70.3522 85.5507 70.3801 85.5011 70.3907C85.4863 70.394 85.4711 70.3956 85.4559 70.3957V70.3957ZM79.436 62.2287C79.4058 62.2288 79.376 62.2223 79.3486 62.2099C79.2967 62.1867 79.2562 62.1439 79.2359 62.0909C79.2156 62.0379 79.2172 61.979 79.2403 61.9272C79.3937 61.5838 80.7667 58.5711 82.2734 58.7355C82.9852 58.8099 83.5435 59.5539 83.9684 61.0025C84.1767 60.1503 84.5961 59.0441 85.3873 58.8722C85.9774 58.7447 86.6068 59.1395 87.3127 60.0721C87.0689 58.7016 86.8699 56.5136 87.9074 55.8395C88.6685 55.3435 89.8596 55.76 91.5457 57.11C91.5901 57.1454 91.6185 57.1971 91.6248 57.2536C91.6311 57.31 91.6147 57.3667 91.5792 57.4111C91.5437 57.4554 91.492 57.4839 91.4356 57.4901C91.3791 57.4964 91.3224 57.48 91.2781 57.4445C89.7968 56.2581 88.7116 55.8273 88.1408 56.1987C87.1216 56.8611 87.6699 59.9416 87.9672 61.0728C87.9803 61.1226 87.975 61.1755 87.9523 61.2218C87.9295 61.268 87.8909 61.3045 87.8434 61.3246C87.7959 61.3446 87.7428 61.3468 87.6938 61.3308C87.6448 61.3149 87.6032 61.2817 87.5766 61.2376C86.5207 59.482 85.8541 59.2097 85.4785 59.2909C84.6785 59.4644 84.2942 61.3333 84.2139 62.0388C84.208 62.0893 84.1845 62.136 84.1474 62.1707C84.1103 62.2054 84.0622 62.2258 84.0115 62.2283C83.96 62.2343 83.9083 62.22 83.8672 62.1885C83.8261 62.1569 83.799 62.1106 83.7915 62.0593C83.2964 59.7475 82.6682 59.2072 82.2287 59.1612C81.2233 59.0563 80.0127 61.2484 79.6313 62.102C79.6144 62.1397 79.587 62.1718 79.5524 62.1943C79.5177 62.2168 79.4773 62.2287 79.436 62.2287V62.2287Z" fill="white"/>
<path d="M58.5058 72.7899C59.3158 72.7899 59.9725 72.1332 59.9725 71.3232C59.9725 70.5131 59.3158 69.8564 58.5058 69.8564C57.6957 69.8564 57.0391 70.5131 57.0391 71.3232C57.0391 72.1332 57.6957 72.7899 58.5058 72.7899Z" fill="#2C3542"/>
<path d="M47.7577 72.4188C48.5678 72.4188 49.2244 71.7621 49.2244 70.9521C49.2244 70.142 48.5678 69.4854 47.7577 69.4854C46.9477 69.4854 46.291 70.142 46.291 70.9521C46.291 71.7621 46.9477 72.4188 47.7577 72.4188Z" fill="#2C3542"/>
<path d="M61.098 79.2289C61.0615 79.2289 61.0257 79.2196 60.9939 79.2017C54.7213 75.7123 46.3958 77.743 46.3126 77.764C46.2576 77.7775 46.1994 77.7688 46.1508 77.7396C46.1022 77.7104 46.0672 77.6631 46.0533 77.6082C46.0395 77.5532 46.048 77.495 46.077 77.4463C46.106 77.3976 46.1531 77.3623 46.208 77.3483C46.2938 77.3274 54.779 75.2543 61.2021 78.8278C61.2435 78.8509 61.2761 78.8871 61.2947 78.9307C61.3133 78.9742 61.317 79.0228 61.3051 79.0686C61.2932 79.1145 61.2664 79.1551 61.2289 79.1841C61.1914 79.2131 61.1454 79.2289 61.098 79.2289V79.2289Z" fill="#2C3542"/>
<path d="M130.822 48.1495C130.783 48.1495 130.744 48.1387 130.711 48.1182C130.677 48.0978 130.65 48.0685 130.632 48.0335C130.614 47.9986 130.606 47.9593 130.608 47.9201C130.611 47.8809 130.625 47.8432 130.648 47.8112C131.26 46.9514 131.589 46.4086 131.591 46.4031C131.606 46.379 131.625 46.358 131.648 46.3413C131.67 46.3246 131.696 46.3125 131.723 46.3057C131.751 46.2989 131.779 46.2975 131.807 46.3017C131.835 46.3059 131.861 46.3155 131.885 46.33C131.91 46.3445 131.931 46.3636 131.947 46.3862C131.964 46.4088 131.976 46.4345 131.983 46.4618C131.99 46.4891 131.991 46.5175 131.987 46.5453C131.983 46.5731 131.973 46.5998 131.959 46.624C131.945 46.6465 131.619 47.1848 130.996 48.0596C130.977 48.0874 130.95 48.1101 130.92 48.1258C130.89 48.1414 130.856 48.1495 130.822 48.1495V48.1495ZM87.827 80.598C87.7707 80.598 87.7166 80.5758 87.6765 80.5362C87.6364 80.4966 87.6135 80.4429 87.6128 80.3865C87.6121 80.3302 87.6336 80.2759 87.6727 80.2353C87.7117 80.1947 87.7652 80.1712 87.8215 80.1697C88.9365 80.1413 90.0451 80.0593 91.1174 79.9259C91.1453 79.9223 91.1738 79.9242 91.201 79.9316C91.2282 79.939 91.2537 79.9517 91.276 79.969C91.2983 79.9863 91.317 80.0078 91.3309 80.0323C91.3449 80.0569 91.3539 80.0839 91.3573 80.1119C91.3608 80.1399 91.3587 80.1683 91.3511 80.1955C91.3436 80.2227 91.3308 80.2481 91.3134 80.2703C91.296 80.2925 91.2743 80.311 91.2497 80.3249C91.2251 80.3387 91.198 80.3475 91.17 80.3508C90.0844 80.4859 88.9615 80.5691 87.8324 80.598H87.827ZM84.4973 80.5361C84.4931 80.5361 84.4885 80.5361 84.4839 80.5356C83.3962 80.4683 82.2758 80.3542 81.1542 80.1965C81.098 80.1886 81.0472 80.1587 81.013 80.1134C80.9788 80.0681 80.964 80.011 80.9719 79.9548C80.9807 79.899 81.0109 79.8489 81.056 79.8149C81.101 79.7808 81.1575 79.7656 81.2136 79.7724C82.3243 79.9284 83.4338 80.0413 84.5107 80.1083C84.5662 80.1118 84.6181 80.1367 84.6555 80.1779C84.6929 80.219 84.7129 80.2731 84.7111 80.3286C84.7094 80.3842 84.6861 80.4369 84.6462 80.4756C84.6063 80.5143 84.5529 80.536 84.4973 80.5361V80.5361ZM94.4182 79.7674C94.3657 79.7674 94.3151 79.7481 94.2759 79.7132C94.2367 79.6784 94.2117 79.6303 94.2056 79.5782C94.1996 79.5261 94.2128 79.4736 94.2429 79.4306C94.273 79.3876 94.3178 79.3572 94.3689 79.3451C95.4409 79.0926 96.4973 78.7783 97.533 78.4037C97.5594 78.3941 97.5874 78.3898 97.6155 78.391C97.6436 78.3922 97.6711 78.399 97.6966 78.4108C97.7221 78.4227 97.745 78.4395 97.764 78.4602C97.783 78.481 97.7977 78.5052 97.8073 78.5317C97.8169 78.5581 97.8212 78.5861 97.82 78.6142C97.8188 78.6423 97.812 78.6699 97.8001 78.6953C97.7882 78.7208 97.7715 78.7437 97.7507 78.7627C97.73 78.7817 97.7057 78.7964 97.6793 78.806C96.6281 79.1865 95.5558 79.5055 94.4676 79.7616C94.4514 79.7655 94.4348 79.7675 94.4182 79.7674V79.7674ZM100.659 77.4979C100.611 77.4979 100.564 77.4817 100.526 77.4518C100.488 77.422 100.462 77.3802 100.451 77.3334C100.439 77.2865 100.444 77.2373 100.465 77.1936C100.485 77.1499 100.519 77.1143 100.562 77.0926C101.545 76.5947 102.495 76.0363 103.409 75.4207C103.456 75.3889 103.514 75.3773 103.569 75.3882C103.625 75.3991 103.674 75.4317 103.706 75.4788C103.738 75.5259 103.749 75.5837 103.738 75.6395C103.728 75.6953 103.695 75.7444 103.648 75.7761C102.72 76.4013 101.754 76.9686 100.756 77.4749C100.726 77.4899 100.693 77.4978 100.659 77.4979V77.4979ZM106.169 73.7868C106.125 73.7868 106.083 73.7734 106.047 73.7486C106.011 73.7237 105.984 73.6885 105.968 73.6477C105.953 73.6069 105.951 73.5623 105.961 73.5201C105.972 73.4778 105.995 73.4399 106.028 73.4112C106.86 72.6877 107.648 71.9156 108.389 71.099C108.407 71.0781 108.43 71.0611 108.456 71.049C108.481 71.0369 108.509 71.03 108.537 71.0286C108.565 71.0272 108.593 71.0313 108.62 71.0408C108.646 71.0503 108.671 71.0649 108.691 71.0839C108.712 71.1028 108.729 71.1256 108.741 71.1511C108.753 71.1766 108.76 71.2042 108.761 71.2323C108.763 71.2605 108.758 71.2886 108.749 71.3151C108.739 71.3416 108.725 71.3659 108.706 71.3867C107.954 72.2157 107.154 72.9996 106.309 73.7341C106.27 73.7681 106.22 73.7869 106.169 73.7868V73.7868ZM110.639 68.8654C110.6 68.8654 110.561 68.8545 110.527 68.834C110.494 68.8135 110.467 68.7841 110.449 68.7491C110.431 68.7141 110.423 68.6748 110.426 68.6356C110.428 68.5964 110.442 68.5587 110.465 68.5267C111.107 67.6298 111.699 66.6977 112.238 65.7348C112.266 65.6858 112.312 65.6498 112.367 65.6348C112.421 65.6197 112.479 65.6267 112.529 65.6542C112.578 65.6818 112.614 65.7277 112.63 65.7819C112.645 65.8361 112.639 65.8944 112.612 65.9439C112.065 66.9206 111.465 67.8661 110.813 68.7759C110.793 68.8036 110.767 68.8262 110.737 68.8418C110.706 68.8574 110.673 68.8655 110.639 68.8654V68.8654ZM113.885 63.0583C113.85 63.0582 113.815 63.0494 113.784 63.0328C113.753 63.0161 113.727 62.992 113.707 62.9627C113.688 62.9334 113.676 62.8998 113.672 62.8647C113.669 62.8297 113.674 62.7943 113.688 62.7618C114.114 61.745 114.476 60.7018 114.769 59.6387C114.776 59.6115 114.789 59.5861 114.806 59.5638C114.824 59.5416 114.845 59.5229 114.869 59.5089C114.894 59.495 114.921 59.4859 114.949 59.4824C114.977 59.4789 115.005 59.4808 115.032 59.4883C115.059 59.4957 115.085 59.5084 115.107 59.5256C115.129 59.5429 115.148 59.5644 115.162 59.5888C115.176 59.6133 115.185 59.6402 115.188 59.6682C115.192 59.6961 115.19 59.7245 115.182 59.7516C114.884 60.8324 114.516 61.8929 114.082 62.9266C114.066 62.9656 114.039 62.9989 114.004 63.0224C113.968 63.0458 113.927 63.0583 113.885 63.0583V63.0583ZM109.146 61.4102L108.873 61.4085C108.816 61.4081 108.762 61.3852 108.722 61.3447C108.682 61.3043 108.66 61.2497 108.66 61.1929C108.661 61.1361 108.683 61.0818 108.724 61.0419C108.764 61.0021 108.819 60.9799 108.876 60.9803H108.879L109.146 60.9819C109.508 60.9819 109.877 60.9723 110.245 60.9535C110.884 60.92 111.529 60.854 112.163 60.7565C112.219 60.7484 112.275 60.7628 112.321 60.7963C112.366 60.8299 112.396 60.88 112.405 60.9358C112.414 60.9916 112.4 61.0485 112.367 61.0942C112.334 61.1398 112.284 61.1706 112.228 61.1797C111.578 61.2795 110.924 61.3466 110.267 61.3809C109.892 61.4006 109.515 61.4102 109.146 61.4102ZM105.573 61.0392C105.557 61.0393 105.541 61.0374 105.526 61.0338C104.416 60.7932 103.353 60.3737 102.378 59.7917C102.329 59.762 102.295 59.7143 102.281 59.659C102.268 59.6037 102.277 59.5454 102.307 59.4969C102.337 59.4484 102.385 59.4138 102.44 59.4005C102.495 59.3873 102.553 59.3965 102.602 59.4262C103.537 59.9844 104.557 60.3864 105.621 60.6164C105.672 60.6282 105.717 60.6584 105.748 60.7013C105.778 60.7442 105.792 60.7968 105.786 60.8491C105.78 60.9014 105.755 60.9497 105.716 60.9848C105.677 61.0198 105.626 61.0392 105.573 61.0392V61.0392ZM115.43 60.4052C115.379 60.4053 115.329 60.3871 115.291 60.354C115.252 60.3209 115.226 60.2751 115.218 60.2247C115.21 60.1744 115.22 60.1228 115.247 60.0793C115.274 60.0358 115.315 60.0033 115.363 59.9875C116.409 59.6434 117.427 59.2238 118.412 58.732C118.463 58.7067 118.521 58.7027 118.575 58.7207C118.629 58.7387 118.674 58.7774 118.699 58.8282C118.724 58.879 118.728 58.9378 118.71 58.9916C118.692 59.0454 118.653 59.0898 118.603 59.1151C117.599 59.6162 116.561 60.0439 115.496 60.3948C115.475 60.4017 115.452 60.4053 115.43 60.4053V60.4052ZM100.116 57.5297C100.08 57.5298 100.045 57.5208 100.013 57.5035C99.9819 57.4863 99.9552 57.4613 99.9359 57.431C99.3165 56.4615 98.9426 55.3557 98.8465 54.2092C98.8415 54.1526 98.8592 54.0964 98.8957 54.0529C98.9322 54.0094 98.9844 53.9821 99.041 53.9771C99.0972 53.9735 99.1527 53.9917 99.1959 54.0279C99.2391 54.0641 99.2668 54.1156 99.2731 54.1716C99.3633 55.2492 99.7145 56.2887 100.296 57.2002C100.317 57.2325 100.329 57.2698 100.33 57.3082C100.331 57.3466 100.322 57.3846 100.304 57.4183C100.285 57.452 100.258 57.4801 100.225 57.4997C100.192 57.5193 100.155 57.5297 100.116 57.5297V57.5297ZM121.387 57.4661C121.341 57.4661 121.296 57.4512 121.26 57.4238C121.223 57.3964 121.196 57.3579 121.182 57.3139C121.169 57.2699 121.17 57.2229 121.186 57.1796C121.201 57.1364 121.23 57.0993 121.269 57.0739C122.187 56.4616 123.072 55.801 123.92 55.095C123.964 55.0587 124.02 55.0413 124.077 55.0465C124.133 55.0518 124.185 55.0793 124.222 55.123C124.258 55.1667 124.275 55.223 124.27 55.2795C124.265 55.3361 124.237 55.3882 124.194 55.4245C123.334 56.1403 122.436 56.8098 121.505 57.4302C121.47 57.4537 121.429 57.4662 121.387 57.4662V57.4661ZM115.58 56.6335C115.574 56.6335 115.569 56.6331 115.563 56.6327C115.535 56.6305 115.507 56.6228 115.482 56.61C115.457 56.5972 115.435 56.5796 115.417 56.5582C115.399 56.5368 115.385 56.512 115.376 56.4852C115.368 56.4585 115.364 56.4303 115.367 56.4022C115.39 56.102 115.403 55.8122 115.403 55.5408C115.417 54.9933 115.348 54.4468 115.199 53.9198C115.124 53.686 115.042 53.4569 114.951 53.2323C114.94 53.2062 114.934 53.1782 114.935 53.15C114.935 53.1218 114.941 53.0939 114.951 53.068C114.962 53.042 114.978 53.0184 114.999 52.9986C115.019 52.9789 115.042 52.9632 115.069 52.9527C115.095 52.9421 115.123 52.9368 115.151 52.9371C115.179 52.9373 115.207 52.9431 115.233 52.9542C115.259 52.9653 115.282 52.9813 115.302 53.0015C115.322 53.0217 115.337 53.0455 115.348 53.0717C115.444 53.3084 115.531 53.5501 115.607 53.7898C115.77 54.3588 115.845 54.9491 115.831 55.5408C115.831 55.8235 115.818 56.125 115.793 56.4365C115.789 56.4901 115.765 56.5402 115.725 56.5767C115.686 56.6132 115.634 56.6335 115.58 56.6335V56.6335ZM126.518 53.2277C126.476 53.2277 126.434 53.2151 126.399 53.1916C126.364 53.1681 126.336 53.1346 126.32 53.0955C126.304 53.0564 126.3 53.0133 126.308 52.9718C126.316 52.9303 126.337 52.8921 126.366 52.8622C127.137 52.0923 127.892 51.2718 128.611 50.4233C128.629 50.4018 128.651 50.3841 128.676 50.3712C128.701 50.3583 128.729 50.3505 128.757 50.3482C128.785 50.3458 128.813 50.3491 128.84 50.3576C128.867 50.3662 128.891 50.38 128.913 50.3982C128.934 50.4163 128.952 50.4386 128.965 50.4636C128.978 50.4886 128.986 50.5159 128.988 50.5439C128.99 50.572 128.987 50.6002 128.979 50.627C128.97 50.6538 128.956 50.6786 128.938 50.7001C128.212 51.5574 127.448 52.3867 126.669 53.165C126.649 53.1849 126.626 53.2007 126.6 53.2114C126.574 53.2222 126.546 53.2277 126.518 53.2277L126.518 53.2277ZM99.516 51.1325C99.4898 51.1325 99.4637 51.1277 99.4391 51.1183C99.3861 51.0979 99.3434 51.0572 99.3203 51.0053C99.2973 50.9534 99.2958 50.8945 99.3162 50.8415C99.7166 49.7569 100.404 48.8013 101.304 48.0763C101.326 48.059 101.352 48.0463 101.379 48.0388C101.406 48.0312 101.434 48.0291 101.462 48.0326C101.49 48.036 101.517 48.0448 101.541 48.0587C101.566 48.0725 101.587 48.091 101.605 48.1131C101.622 48.1353 101.635 48.1606 101.642 48.1877C101.65 48.2147 101.652 48.243 101.648 48.2709C101.645 48.2988 101.636 48.3257 101.622 48.3502C101.608 48.3746 101.59 48.3961 101.568 48.4134C100.728 49.0908 100.088 49.9831 99.7159 50.9954C99.7004 51.0357 99.673 51.0705 99.6373 51.095C99.6016 51.1194 99.5593 51.1325 99.516 51.1325V51.1325ZM113.412 50.5424C113.381 50.5424 113.351 50.5358 113.323 50.5231C113.295 50.5105 113.27 50.4919 113.25 50.4688C112.535 49.6457 111.694 48.9418 110.758 48.3837C110.733 48.3693 110.712 48.3503 110.696 48.3278C110.679 48.3052 110.667 48.2796 110.66 48.2523C110.653 48.2251 110.651 48.1967 110.655 48.1689C110.659 48.1411 110.669 48.1143 110.683 48.0901C110.698 48.066 110.717 48.0449 110.739 48.0281C110.762 48.0112 110.787 47.999 110.815 47.9921C110.842 47.9852 110.87 47.9837 110.898 47.9878C110.926 47.9918 110.953 48.0013 110.977 48.0157C111.952 48.5973 112.829 49.3305 113.573 50.1878C113.6 50.2188 113.618 50.2569 113.624 50.2976C113.63 50.3383 113.624 50.3798 113.607 50.4172C113.59 50.4546 113.562 50.4863 113.527 50.5085C113.493 50.5307 113.453 50.5425 113.412 50.5424V50.5424ZM107.781 47.204C107.766 47.2041 107.752 47.2025 107.737 47.1994C106.675 46.9753 105.579 46.96 104.511 47.1542C104.483 47.1594 104.455 47.1591 104.427 47.1534C104.4 47.1476 104.374 47.1365 104.351 47.1207C104.327 47.1048 104.308 47.0846 104.292 47.061C104.277 47.0375 104.266 47.0112 104.261 46.9836C104.256 46.9559 104.256 46.9276 104.262 46.9001C104.267 46.8725 104.279 46.8464 104.294 46.8232C104.31 46.8 104.331 46.7801 104.354 46.7647C104.378 46.7493 104.404 46.7387 104.432 46.7335C105.555 46.5285 106.707 46.5444 107.824 46.7803C107.875 46.791 107.921 46.8206 107.953 46.8632C107.984 46.9059 107.999 46.9587 107.993 47.0114C107.988 47.0641 107.963 47.1129 107.924 47.1485C107.885 47.1841 107.834 47.2038 107.781 47.204V47.204ZM77.8617 79.6115C77.8467 79.6114 77.8317 79.6098 77.817 79.6069C77.2654 79.4902 76.7064 79.3622 76.14 79.2229C76.1126 79.2163 76.0869 79.2043 76.0642 79.1877C76.0415 79.1711 76.0223 79.1501 76.0076 79.1261C75.993 79.102 75.9833 79.0753 75.979 79.0475C75.9748 79.0197 75.976 78.9913 75.9827 78.964C75.9894 78.9366 76.0015 78.9109 76.0181 78.8882C76.0348 78.8656 76.0558 78.8464 76.0799 78.8318C76.104 78.8173 76.1307 78.8076 76.1585 78.8034C76.1863 78.7992 76.2147 78.8005 76.242 78.8073C76.8037 78.9449 77.3582 79.0717 77.9056 79.1878C77.9574 79.1987 78.0033 79.2284 78.0345 79.2712C78.0657 79.314 78.0799 79.3668 78.0745 79.4194C78.069 79.4721 78.0442 79.5208 78.005 79.5563C77.9657 79.5917 77.9146 79.6114 77.8617 79.6115H77.8617Z" fill="#B5BFCD"/>
<path d="M138.12 45.2024C140.059 43.0613 140.363 40.1769 138.799 38.76C137.235 37.3431 134.394 37.9302 132.455 40.0713C130.516 42.2125 130.211 45.0969 131.776 46.5138C133.34 47.9307 136.18 47.3436 138.12 45.2024Z" fill="#2C3542"/>
<path d="M136.502 39.99C137.713 39.99 138.695 39.0082 138.695 37.797C138.695 36.5858 137.713 35.604 136.502 35.604C135.29 35.604 134.309 36.5858 134.309 37.797C134.309 39.0082 135.29 39.99 136.502 39.99Z" fill="#B5BFCD"/>
<path d="M136.501 38.2354C136.743 38.2354 136.94 38.0391 136.94 37.7969C136.94 37.5547 136.743 37.3584 136.501 37.3584C136.259 37.3584 136.062 37.5547 136.062 37.7969C136.062 38.0391 136.259 38.2354 136.501 38.2354Z" fill="#2C3542"/>
<path d="M139.984 43.1423C141.195 43.1423 142.177 42.1605 142.177 40.9493C142.177 39.7382 141.195 38.7563 139.984 38.7563C138.773 38.7563 137.791 39.7382 137.791 40.9493C137.791 42.1605 138.773 43.1423 139.984 43.1423Z" fill="#B5BFCD"/>
<path d="M139.983 41.3878C140.226 41.3878 140.422 41.1914 140.422 40.9493C140.422 40.7071 140.226 40.5107 139.983 40.5107C139.741 40.5107 139.545 40.7071 139.545 40.9493C139.545 41.1914 139.741 41.3878 139.983 41.3878Z" fill="#2C3542"/>
<path d="M134.698 39.3318C134.794 39.3775 134.88 39.4419 134.95 39.5212C135.021 39.6005 135.075 39.6932 135.11 39.7938C135.144 39.8943 135.158 40.0007 135.151 40.1068C135.144 40.2129 135.116 40.3164 135.068 40.4114C134.277 41.9639 132.046 45.7497 128.226 47.8099C122.214 51.0527 118.046 44.1325 120.862 40.6948C123.949 36.9277 131.252 37.6527 134.698 39.3318Z" fill="#A1AEC0"/>
<path d="M124.829 43.1373C124.784 43.1372 124.739 43.1227 124.703 43.0958C124.666 43.0689 124.639 43.031 124.625 42.9876C124.611 42.9442 124.612 42.8976 124.627 42.8545C124.641 42.8114 124.669 42.7741 124.706 42.7479C130.251 38.8516 134.827 39.3459 135.019 39.3697C135.075 39.3764 135.127 39.4052 135.162 39.4498C135.197 39.4944 135.213 39.5511 135.206 39.6075C135.2 39.6638 135.171 39.7152 135.126 39.7503C135.082 39.7854 135.025 39.8013 134.968 39.7946C134.921 39.7904 130.353 39.3028 124.952 43.0984C124.916 43.1238 124.873 43.1374 124.829 43.1373V43.1373Z" fill="white"/>
<path d="M138.635 42.8971C138.58 42.8061 138.507 42.7269 138.421 42.6643C138.335 42.6017 138.238 42.5569 138.134 42.5325C138.031 42.5081 137.923 42.5047 137.819 42.5223C137.714 42.5399 137.614 42.5783 137.524 42.6352C136.057 43.5754 132.509 46.1686 130.836 50.173C128.202 56.4762 135.499 59.9413 138.643 56.7994C142.087 53.3564 140.645 46.1606 138.635 42.8971Z" fill="#A1AEC0"/>
<path d="M136.035 53.285C135.997 53.285 135.96 53.2753 135.928 53.2566C135.895 53.238 135.868 53.2112 135.849 53.1789C135.831 53.1465 135.821 53.1098 135.82 53.0724C135.82 53.0349 135.83 52.9981 135.848 52.9655C139.092 47.2165 138.158 42.7175 138.148 42.6728C138.136 42.6173 138.146 42.5593 138.177 42.5115C138.208 42.4636 138.256 42.4299 138.311 42.4177C138.367 42.4061 138.424 42.4166 138.472 42.447C138.52 42.4774 138.554 42.5253 138.566 42.5804C138.608 42.7694 139.552 47.2747 136.221 53.1763C136.202 53.2093 136.175 53.2367 136.143 53.2558C136.11 53.2749 136.073 53.285 136.035 53.285V53.285Z" fill="white"/>
<path d="M26.8439 45.8475C28.9678 47.2293 31.2168 48.4086 33.5613 49.3699C33.6708 49.3993 33.7874 49.3844 33.886 49.3284C33.9846 49.2724 34.0572 49.1799 34.0881 49.0708C34.1156 48.9614 34.0998 48.8456 34.0441 48.7475C33.9884 48.6494 33.897 48.5765 33.789 48.544C31.5154 47.6048 29.3349 46.4544 27.2761 45.108C26.8131 44.806 26.3835 45.5472 26.8439 45.8475V45.8475ZM37.3845 44.1894L26.1814 35.1147C25.7568 34.7708 25.1472 35.3732 25.5758 35.7203L36.7789 44.795C37.2035 45.1389 37.8131 44.5365 37.3845 44.1894L37.3845 44.1894ZM40.9996 40.9944C39.7092 39.0769 38.5248 37.0903 37.4514 35.0434C37.1953 34.5551 36.4559 34.9876 36.7119 35.4757C37.7852 37.5226 38.9697 39.5092 40.26 41.4267C40.5661 41.8816 41.3084 41.4534 40.9995 40.9944H40.9996ZM45.1614 38.3946L45.2867 30.1534C45.2828 30.0424 45.236 29.9372 45.1561 29.86C45.0762 29.7829 44.9695 29.7397 44.8584 29.7397C44.7474 29.7397 44.6406 29.7829 44.5607 29.86C44.4808 29.9372 44.434 30.0424 44.4302 30.1534L44.305 38.3946C44.3088 38.5056 44.3556 38.6108 44.4355 38.688C44.5154 38.7651 44.6221 38.8083 44.7332 38.8083C44.8443 38.8083 44.951 38.7651 45.0309 38.688C45.1108 38.6108 45.1576 38.5056 45.1614 38.3946ZM62.3383 97.0045C59.4737 97.6534 56.1565 98.404 53.9331 100.461C53.441 100.882 53.0481 101.407 52.7825 101.998C52.5168 102.589 52.385 103.231 52.3964 103.879C52.4794 105.413 53.3728 106.788 54.4667 107.814C56.652 109.864 59.709 110.852 62.6299 111.204C64.2393 111.398 65.8675 111.375 67.4707 111.136C68.8354 110.932 70.6099 110.612 71.5538 109.498C72.5045 108.376 71.6964 107.101 70.5966 106.483C69.0243 105.601 67.0873 105.758 65.3693 105.989C62.5483 106.368 58.4066 106.846 57.2555 109.959C56.1278 113.009 58.8924 115.587 61.1718 117.101C64.0271 118.932 67.0943 120.409 70.3059 121.5C77.0577 123.863 84.182 124.982 91.3331 124.803C92.2509 124.783 93.1678 124.741 94.0837 124.679C94.6308 124.642 94.6349 123.785 94.0837 123.822C87.686 124.259 81.2595 123.664 75.0508 122.06C72.0742 121.296 69.1728 120.265 66.3819 118.979C65.0366 118.358 63.726 117.664 62.4562 116.901C61.1371 116.166 59.9536 115.211 58.9572 114.076C58.1535 113.087 57.6373 111.806 57.974 110.527C58.3464 109.113 59.6267 108.279 60.9278 107.804C62.407 107.317 63.9344 106.99 65.4835 106.831C67.063 106.619 68.9655 106.421 70.3689 107.345C70.8349 107.652 71.3506 108.186 71.0278 108.77C70.7035 109.356 69.8923 109.654 69.2935 109.85C67.9021 110.275 66.4543 110.487 64.9993 110.478C62.1931 110.549 59.4169 109.888 56.9443 108.559C54.7919 107.342 52.1179 104.655 53.7345 102.022C54.3654 100.994 55.4362 100.304 56.4916 99.7745C57.7767 99.1615 59.1202 98.6795 60.5019 98.3359C61.186 98.1517 61.8751 97.9868 62.566 97.8303C63.1033 97.7086 62.8759 96.8826 62.3383 97.0044L62.3383 97.0045ZM153.409 75.3823C151.607 77.4912 149.246 79.0484 146.597 79.8747C145.313 80.2664 143.978 80.4686 142.635 80.4748C141.979 80.4787 141.323 80.4343 140.673 80.3423C139.991 80.2863 139.322 80.1259 138.688 79.8667C138.437 79.7406 138.133 79.527 138.155 79.2069C138.177 78.8959 138.505 78.7129 138.74 78.5702C139.39 78.174 140.23 77.6603 141.024 77.8669C141.314 77.9448 141.574 78.1059 141.774 78.3302C141.973 78.5546 142.102 78.8323 142.145 79.1292C142.217 79.9054 141.546 80.508 140.999 80.9496C138.782 82.7414 135.643 83.0329 132.917 82.5805C130.001 82.0964 127.3 80.6288 125.748 78.049C125.689 77.9551 125.595 77.8878 125.487 77.8615C125.379 77.8352 125.265 77.8518 125.17 77.9079C125.074 77.9639 125.003 78.0551 124.973 78.162C124.943 78.269 124.956 78.3835 125.009 78.4813C126.669 81.2411 129.559 82.8852 132.69 83.4063C135.918 83.9436 139.689 83.5276 142.108 81.1058C143.22 79.9934 143.333 78.2887 141.929 77.3523C141.601 77.1473 141.23 77.0211 140.846 76.9838C140.461 76.9464 140.073 76.9989 139.712 77.137C138.936 77.3651 138.227 77.7808 137.649 78.3475C137.431 78.5922 137.31 78.9077 137.308 79.2351C137.306 79.5624 137.423 79.8795 137.637 80.1271C138.118 80.6913 138.878 80.8635 139.57 81.0106C141.151 81.3485 142.777 81.418 144.381 81.2163C148.125 80.7145 151.554 78.8537 154.014 75.9879C154.374 75.5734 153.771 74.9651 153.409 75.3822L153.409 75.3823Z" fill="#A1AEC0"/>
<path d="M25.8783 78.8348C26.7172 78.8348 27.3973 78.1547 27.3973 77.3158C27.3973 76.4769 26.7172 75.7969 25.8783 75.7969C25.0394 75.7969 24.3594 76.4769 24.3594 77.3158C24.3594 78.1547 25.0394 78.8348 25.8783 78.8348Z" fill="#A1AEC0"/>
<path d="M44.8598 116.174C46.066 116.174 47.0438 115.196 47.0438 113.99C47.0438 112.784 46.066 111.806 44.8598 111.806C43.6536 111.806 42.6758 112.784 42.6758 113.99C42.6758 115.196 43.6536 116.174 44.8598 116.174Z" fill="#A1AEC0"/>
</g>
</svg>
