<svg width="16" height="16" viewBox="0 0 16 16" fill="none" xmlns="http://www.w3.org/2000/svg">
<path d="M7.29229 15.1004C6.97229 15.1004 6.65896 15.0204 6.36563 14.8604C5.77896 14.5337 5.42563 13.9404 5.42563 13.2737V9.74039C5.42563 9.40706 5.20563 8.90706 4.99896 8.65372L2.50563 6.01372C2.08562 5.59372 1.76562 4.87372 1.76562 4.33372V2.80039C1.76562 1.73372 2.57229 0.900391 3.59896 0.900391H12.399C13.4123 0.900391 14.2323 1.72039 14.2323 2.73372V4.20039C14.2323 4.90039 13.8123 5.69372 13.419 6.08706L10.5323 8.64039C10.2523 8.87372 10.0323 9.38706 10.0323 9.80039V12.6671C10.0323 13.2604 9.65896 13.9471 9.19229 14.2271L8.27229 14.8204C7.97229 15.0071 7.63229 15.1004 7.29229 15.1004ZM3.59896 1.90039C3.13229 1.90039 2.76563 2.29372 2.76563 2.80039V4.33372C2.76563 4.58039 2.96563 5.06039 3.21896 5.31372L5.75896 7.98706C6.09896 8.40706 6.43229 9.10706 6.43229 9.73372V13.2671C6.43229 13.7004 6.73229 13.9137 6.85896 13.9804C7.13896 14.1337 7.47896 14.1337 7.73896 13.9737L8.66563 13.3804C8.85229 13.2671 9.03896 12.9071 9.03896 12.6671V9.80039C9.03896 9.08706 9.38563 8.30039 9.88563 7.88039L12.739 5.35372C12.9656 5.12706 13.239 4.58706 13.239 4.19372V2.73372C13.239 2.27372 12.8656 1.90039 12.4056 1.90039H3.59896Z" fill="white"/>
<path d="M4.00044 7.16749C3.9071 7.16749 3.82044 7.14083 3.73377 7.09416C3.50044 6.94749 3.4271 6.63416 3.57377 6.40083L6.86044 1.13416C7.0071 0.900827 7.31377 0.827493 7.5471 0.97416C7.78044 1.12083 7.85377 1.42749 7.7071 1.66083L4.42044 6.92749C4.3271 7.08083 4.1671 7.16749 4.00044 7.16749Z" fill="white"/>
</svg>
