<svg width="16" height="16" viewBox="0 0 16 16" fill="none" xmlns="http://www.w3.org/2000/svg">
<path opacity="0.4" d="M14.6673 5.20671V9.26671L13.5807 8.33337C13.0607 7.88671 12.2206 7.88671 11.7006 8.33337L8.92732 10.7134C8.40732 11.16 7.56732 11.16 7.04732 10.7134L6.82065 10.5267C6.34732 10.1134 5.59398 10.0734 5.06065 10.4334L1.78065 12.6334L1.70732 12.6867C1.46065 12.1534 1.33398 11.52 1.33398 10.7934V5.20671C1.33398 2.78004 2.78065 1.33337 5.20732 1.33337H10.794C13.2207 1.33337 14.6673 2.78004 14.6673 5.20671Z" fill="#5DC9A0"/>
<path d="M6.00073 6.92004C6.87702 6.92004 7.5874 6.20966 7.5874 5.33337C7.5874 4.45708 6.87702 3.7467 6.00073 3.7467C5.12444 3.7467 4.41406 4.45708 4.41406 5.33337C4.41406 6.20966 5.12444 6.92004 6.00073 6.92004Z" fill="#5DC9A0"/>
<path d="M14.667 9.26662V10.7933C14.667 13.22 13.2204 14.6666 10.7937 14.6666H5.20703C3.50703 14.6666 2.28036 13.9533 1.70703 12.6866L1.78036 12.6333L5.06036 10.4333C5.5937 10.0733 6.34703 10.1133 6.82036 10.5266L7.04703 10.7133C7.56703 11.16 8.40703 11.16 8.92703 10.7133L11.7004 8.33329C12.2204 7.88662 13.0604 7.88662 13.5804 8.33329L14.667 9.26662Z" fill="#5DC9A0"/>
</svg>
