<svg width="32" height="32" viewBox="0 0 32 32" fill="none" xmlns="http://www.w3.org/2000/svg">
<circle cx="16" cy="16" r="16" fill="#256FF6" fill-opacity="0.05"/>
<path d="M16 24.0628C15.475 24.0628 14.9425 23.8603 14.545 23.4628L13.2625 22.1953C12.9475 21.8803 12.5125 21.7078 12.07 21.7078H11.5C9.9475 21.7078 8.6875 20.4553 8.6875 18.9178V10.7353C8.6875 9.19779 9.9475 7.94531 11.5 7.94531H20.5C22.0525 7.94531 23.3125 9.19779 23.3125 10.7353V18.9178C23.3125 20.4553 22.0525 21.7078 20.5 21.7078H19.93C19.4875 21.7078 19.0525 21.8878 18.7375 22.1953L17.455 23.4628C17.0575 23.8603 16.525 24.0628 16 24.0628ZM11.5 9.06281C10.57 9.06281 9.8125 9.81278 9.8125 10.7278V18.9103C9.8125 19.8328 10.57 20.5753 11.5 20.5753H12.07C12.8125 20.5753 13.5325 20.8753 14.0575 21.3928L15.34 22.6603C15.7075 23.0203 16.3 23.0203 16.6675 22.6603L17.95 21.3928C18.475 20.8753 19.195 20.5753 19.9375 20.5753H20.5C21.43 20.5753 22.1875 19.8253 22.1875 18.9103V10.7278C22.1875 9.80528 21.43 9.06281 20.5 9.06281H11.5Z" fill="#256FF6"/>
<path d="M16.0014 15.0633C14.7264 15.0633 13.6914 14.0283 13.6914 12.7533C13.6914 11.4783 14.7264 10.4434 16.0014 10.4434C17.2764 10.4434 18.3114 11.4783 18.3114 12.7533C18.3114 14.0283 17.2764 15.0633 16.0014 15.0633ZM16.0014 11.5684C15.3489 11.5684 14.8164 12.1008 14.8164 12.7533C14.8164 13.4058 15.3489 13.9383 16.0014 13.9383C16.6539 13.9383 17.1864 13.4058 17.1864 12.7533C17.1864 12.1008 16.6539 11.5684 16.0014 11.5684Z" fill="#256FF6"/>
<path d="M19 19.3082C18.6925 19.3082 18.4375 19.0532 18.4375 18.7457C18.4375 17.7107 17.3425 16.8633 16 16.8633C14.6575 16.8633 13.5625 17.7107 13.5625 18.7457C13.5625 19.0532 13.3075 19.3082 13 19.3082C12.6925 19.3082 12.4375 19.0532 12.4375 18.7457C12.4375 17.0882 14.035 15.7383 16 15.7383C17.965 15.7383 19.5625 17.0882 19.5625 18.7457C19.5625 19.0532 19.3075 19.3082 19 19.3082Z" fill="#256FF6"/>
</svg>
