<svg width="32" height="32" viewBox="0 0 32 32" fill="none" xmlns="http://www.w3.org/2000/svg">
<circle cx="16" cy="16" r="16" fill="#256FF6" fill-opacity="0.05"/>
<path d="M16 18.8125C14.4475 18.8125 13.1875 17.5525 13.1875 16C13.1875 14.4475 14.4475 13.1875 16 13.1875C17.5525 13.1875 18.8125 14.4475 18.8125 16C18.8125 17.5525 17.5525 18.8125 16 18.8125ZM16 14.3125C15.07 14.3125 14.3125 15.07 14.3125 16C14.3125 16.93 15.07 17.6875 16 17.6875C16.93 17.6875 17.6875 16.93 17.6875 16C17.6875 15.07 16.93 14.3125 16 14.3125Z" fill="#256FF6"/>
<path d="M18.4075 23.6427C18.25 23.6427 18.0925 23.6202 17.935 23.5827C17.47 23.4552 17.08 23.1627 16.8325 22.7502L16.7425 22.6002C16.3 21.8352 15.6925 21.8352 15.25 22.6002L15.1675 22.7427C14.92 23.1627 14.53 23.4627 14.065 23.5827C13.5925 23.7102 13.105 23.6427 12.6925 23.3952L11.4025 22.6527C10.945 22.3902 10.615 21.9627 10.4725 21.4452C10.3375 20.9277 10.405 20.3952 10.6675 19.9377C10.885 19.5552 10.945 19.2102 10.8175 18.9927C10.69 18.7752 10.3675 18.6477 9.925 18.6477C8.83 18.6477 7.9375 17.7552 7.9375 16.6602V15.3402C7.9375 14.2452 8.83 13.3527 9.925 13.3527C10.3675 13.3527 10.69 13.2252 10.8175 13.0077C10.945 12.7902 10.8925 12.4452 10.6675 12.0627C10.405 11.6052 10.3375 11.0652 10.4725 10.5552C10.6075 10.0377 10.9375 9.61021 11.4025 9.34771L12.7 8.60521C13.5475 8.10271 14.665 8.39521 15.175 9.25771L15.265 9.40771C15.7075 10.1727 16.315 10.1727 16.7575 9.40771L16.84 9.26521C17.35 8.39521 18.4675 8.10271 19.3225 8.61271L20.6125 9.35521C21.07 9.61771 21.4 10.0452 21.5425 10.5627C21.6775 11.0802 21.61 11.6127 21.3475 12.0702C21.13 12.4527 21.07 12.7977 21.1975 13.0152C21.325 13.2327 21.6475 13.3602 22.09 13.3602C23.185 13.3602 24.0775 14.2527 24.0775 15.3477V16.6677C24.0775 17.7627 23.185 18.6552 22.09 18.6552C21.6475 18.6552 21.325 18.7827 21.1975 19.0002C21.07 19.2177 21.1225 19.5627 21.3475 19.9452C21.61 20.4027 21.685 20.9427 21.5425 21.4527C21.4075 21.9702 21.0775 22.3977 20.6125 22.6602L19.315 23.4027C19.03 23.5602 18.7225 23.6427 18.4075 23.6427ZM16 20.8677C16.6675 20.8677 17.29 21.2877 17.7175 22.0302L17.8 22.1727C17.89 22.3302 18.04 22.4427 18.22 22.4877C18.4 22.5327 18.58 22.5102 18.73 22.4202L20.0275 21.6702C20.2225 21.5577 20.3725 21.3702 20.4325 21.1452C20.4925 20.9202 20.4625 20.6877 20.35 20.4927C19.9225 19.7577 19.87 19.0002 20.2 18.4227C20.53 17.8452 21.2125 17.5152 22.0675 17.5152C22.5475 17.5152 22.93 17.1327 22.93 16.6527V15.3327C22.93 14.8602 22.5475 14.4702 22.0675 14.4702C21.2125 14.4702 20.53 14.1402 20.2 13.5627C19.87 12.9852 19.9225 12.2277 20.35 11.4927C20.4625 11.2977 20.4925 11.0652 20.4325 10.8402C20.3725 10.6152 20.23 10.4352 20.035 10.3152L18.7375 9.57271C18.415 9.37771 17.9875 9.49021 17.7925 9.82021L17.71 9.96271C17.2825 10.7052 16.66 11.1252 15.9925 11.1252C15.325 11.1252 14.7025 10.7052 14.275 9.96271L14.1925 9.81271C14.005 9.49771 13.585 9.38521 13.2625 9.57271L11.965 10.3227C11.77 10.4352 11.62 10.6227 11.56 10.8477C11.5 11.0727 11.53 11.3052 11.6425 11.5002C12.07 12.2352 12.1225 12.9927 11.7925 13.5702C11.4625 14.1477 10.78 14.4777 9.925 14.4777C9.445 14.4777 9.0625 14.8602 9.0625 15.3402V16.6602C9.0625 17.1327 9.445 17.5227 9.925 17.5227C10.78 17.5227 11.4625 17.8527 11.7925 18.4302C12.1225 19.0077 12.07 19.7652 11.6425 20.5002C11.53 20.6952 11.5 20.9277 11.56 21.1527C11.62 21.3777 11.7625 21.5577 11.9575 21.6777L13.255 22.4202C13.4125 22.5177 13.6 22.5402 13.7725 22.4952C13.9525 22.4502 14.1025 22.3302 14.2 22.1727L14.2825 22.0302C14.71 21.2952 15.3325 20.8677 16 20.8677Z" fill="#256FF6"/>
</svg>
