<svg width="42" height="42" viewBox="0 0 42 42" fill="none" xmlns="http://www.w3.org/2000/svg">
<circle cx="21" cy="21" r="21" fill="#F0FFF9"/>
<path d="M31.0602 19.82L30.9002 19.6C30.6202 19.26 30.2902 18.99 29.9102 18.79C29.4002 18.5 28.8202 18.35 28.2202 18.35H15.7702C15.1702 18.35 14.6002 18.5 14.0802 18.79C13.6902 19 13.3402 19.29 13.0502 19.65C12.4802 20.38 12.2102 21.28 12.3002 22.18L12.6702 26.85C12.8002 28.26 12.9702 30 16.1402 30H27.8602C31.0302 30 31.1902 28.26 31.3302 26.84L31.7002 22.19C31.7902 21.35 31.5702 20.51 31.0602 19.82ZM24.3902 25.34H19.6002C19.2102 25.34 18.9002 25.02 18.9002 24.64C18.9002 24.26 19.2102 23.94 19.6002 23.94H24.3902C24.7802 23.94 25.0902 24.26 25.0902 24.64C25.0902 25.03 24.7802 25.34 24.3902 25.34Z" fill="#5DC9A0"/>
<path opacity="0.4" d="M13.3809 19.31C13.6009 19.11 13.8209 18.93 14.0809 18.79C14.5909 18.5 15.1709 18.35 15.7709 18.35H28.2309C28.8309 18.35 29.4009 18.5 29.9209 18.79C30.1809 18.93 30.4109 19.11 30.6209 19.32V18.79V17.82C30.6209 14.25 29.5309 13.16 25.9609 13.16H23.5809C23.1409 13.16 23.1309 13.15 22.8709 12.81L21.6709 11.2C21.1009 10.46 20.6509 10 19.2209 10H18.0409C14.4709 10 13.3809 11.09 13.3809 14.66V18.8V19.31Z" fill="#5DC9A0"/>
</svg>
