<svg width="19" height="19" viewBox="0 0 19 19" fill="none" xmlns="http://www.w3.org/2000/svg">
<path d="M8.07758 1.84257C8.79694 0.910731 10.2031 0.910731 10.9224 1.84257C11.3747 2.42844 12.1399 2.67707 12.8502 2.46894C13.9799 2.13789 15.1174 2.96438 15.1517 4.14109C15.1732 4.8809 15.6461 5.53183 16.3431 5.78093C17.4516 6.17712 17.8861 7.51442 17.2222 8.48652C16.8048 9.0977 16.8048 9.9023 17.2222 10.5135C17.8861 11.4856 17.4516 12.8229 16.3431 13.2191C15.6461 13.4682 15.1732 14.1191 15.1517 14.8589C15.1174 16.0356 13.9799 16.8621 12.8502 16.5311C12.1399 16.3229 11.3747 16.5716 10.9224 17.1574C10.2031 18.0893 8.79694 18.0893 8.07758 17.1574C7.62531 16.5716 6.86009 16.3229 6.14984 16.5311C5.02014 16.8621 3.88257 16.0356 3.84832 14.8589C3.82678 14.1191 3.35385 13.4682 2.6569 13.2191C1.54838 12.8229 1.11386 11.4856 1.7778 10.5135C2.19523 9.9023 2.19523 9.0977 1.7778 8.48652C1.11386 7.51442 1.54838 6.17712 2.6569 5.78093C3.35385 5.53183 3.82678 4.8809 3.84832 4.14109C3.88257 2.96438 5.02014 2.13789 6.14984 2.46894C6.86009 2.67707 7.62531 2.42844 8.07758 1.84257Z" fill="white"/>
<path d="M6.70508 10.6178L8.38155 12.2943L12.8521 7.82373" fill="white"/>
<path d="M6.70508 10.6178L8.38155 12.2943L12.8521 7.82373" stroke="#424B5A" stroke-width="1.5" stroke-linecap="round" stroke-linejoin="round"/>
</svg>
