<svg width="40" height="40" viewBox="0 0 40 40" fill="none" xmlns="http://www.w3.org/2000/svg">
<path d="M11.666 26.6665C13.0467 26.6665 14.166 25.5472 14.166 24.1665C14.166 22.7858 13.0467 21.6665 11.666 21.6665C10.2853 21.6665 9.16602 22.7858 9.16602 24.1665C9.16602 25.5472 10.2853 26.6665 11.666 26.6665Z" fill="#6ACDA7"/>
<path d="M19.166 19.3052C20.5467 19.3052 21.666 18.1859 21.666 16.8052C21.666 15.4245 20.5467 14.3052 19.166 14.3052C17.7853 14.3052 16.666 15.4245 16.666 16.8052C16.666 18.1859 17.7853 19.3052 19.166 19.3052Z" fill="#6ACDA7"/>
<path d="M24.7207 24.5835C26.1014 24.5835 27.2207 23.4642 27.2207 22.0835C27.2207 20.7028 26.1014 19.5835 24.7207 19.5835C23.34 19.5835 22.2207 20.7028 22.2207 22.0835C22.2207 23.4642 23.34 24.5835 24.7207 24.5835Z" fill="#6ACDA7"/>
<path d="M24.592 19.5964L21.6523 16.6567C21.6553 16.7068 21.6673 16.7542 21.6673 16.805C21.6673 18.055 20.7471 19.0816 19.5488 19.2665L22.2354 21.9531C22.3021 20.6782 23.3171 19.6631 24.592 19.5964Z" fill="#C3EBDC"/>
<path d="M33.334 15.8335C34.7147 15.8335 35.834 14.7142 35.834 13.3335C35.834 11.9528 34.7147 10.8335 33.334 10.8335C31.9533 10.8335 30.834 11.9528 30.834 13.3335C30.834 14.7142 31.9533 15.8335 33.334 15.8335Z" fill="#6ACDA7"/>
<path d="M30.8597 13.5894L24.8525 19.5965C26.1273 19.6633 27.1425 20.6783 27.2092 21.9531L33.3294 15.833C32.0384 15.8308 30.9894 14.8466 30.8597 13.5894ZM16.6673 16.8051C16.6673 16.7543 16.6793 16.7069 16.6823 16.6569L11.6719 21.6673C12.9628 21.6697 14.0119 22.6536 14.1416 23.9108L18.7857 19.2667C17.5875 19.0817 16.6673 18.0551 16.6673 16.8051Z" fill="#C3EBDC"/>
<path d="M34.1667 36.6666H4.16667C3.24672 36.6671 2.50052 35.9218 2.5 35.0018C2.5 35.0012 2.5 35.0006 2.5 34.9999V4.99992C2.5 4.07945 3.2462 3.33325 4.16667 3.33325C5.08713 3.33325 5.83333 4.07945 5.83333 4.99992V33.3333H34.1667C35.0871 33.3333 35.8333 34.0795 35.8333 34.9999C35.8333 35.9204 35.0871 36.6666 34.1667 36.6666Z" fill="#5DC9A0"/>
</svg>
