<svg width="20" height="20" viewBox="0 0 20 20" fill="none" xmlns="http://www.w3.org/2000/svg">
<path d="M8.39173 2.35005L2.61673 6.97504C1.96673 7.4917 1.55006 8.58337 1.69172 9.40004L2.80006 16.0334C3.00006 17.2167 4.13339 18.175 5.33339 18.175H14.6667C15.8584 18.175 17.0001 17.2084 17.2001 16.0334L18.3084 9.40004C18.4417 8.58337 18.0251 7.4917 17.3834 6.97504L11.6084 2.35836C10.7167 1.6417 9.27506 1.64171 8.39173 2.35005Z" fill="#899DAE"/>
<path d="M9.99935 12.9167C11.1499 12.9167 12.0827 11.9839 12.0827 10.8333C12.0827 9.68274 11.1499 8.75 9.99935 8.75C8.84876 8.75 7.91602 9.68274 7.91602 10.8333C7.91602 11.9839 8.84876 12.9167 9.99935 12.9167Z" fill="#00325C"/>
</svg>
