<svg width="30" height="30" viewBox="0 0 30 30" fill="none" xmlns="http://www.w3.org/2000/svg">
<g clip-path="url(#clip0_1870_28105)">
<path d="M7.60735 29.8938C6.44698 29.8809 5.29751 29.6681 4.20941 29.2647C3.41484 28.971 2.69594 28.5034 2.10529 27.8962C1.4964 27.3067 1.02814 26.5876 0.735294 25.7924C0.33228 24.7043 0.11976 23.5549 0.107059 22.3947C0.0179412 20.4659 0 19.8874 0 15C0 10.1126 0.0197059 9.53618 0.106176 7.60588C0.120418 6.44611 0.333201 5.29734 0.735294 4.20941C1.02957 3.41471 1.49716 2.69553 2.10412 2.10412C2.69404 1.49577 3.41327 1.02795 4.20853 0.735294C5.29663 0.331946 6.44609 0.119126 7.60647 0.106176C9.53588 0.0179412 10.1153 0 15 0C19.8847 0 20.4638 0.0197059 22.3941 0.106176C23.5542 0.120318 24.7033 0.333102 25.7915 0.735294C26.5864 1.02833 27.3054 1.496 27.8956 2.10382C28.5036 2.69419 28.9715 3.41341 29.2647 4.20853C29.6682 5.29661 29.8811 6.44608 29.8941 7.60647C29.9824 9.53677 30.0003 10.1147 30.0003 15.0006C30.0003 19.8865 29.9824 20.4644 29.8941 22.3947C29.8801 23.5549 29.6672 24.7041 29.2647 25.7924C28.9602 26.5815 28.4939 27.2982 27.8957 27.8962C27.2975 28.4943 26.5807 28.9604 25.7915 29.2647C24.7034 29.6681 23.5539 29.8811 22.3935 29.8941C20.465 29.9824 19.8853 30.0003 14.9994 30.0003C10.1135 30.0003 9.53559 29.9832 7.60706 29.8941" fill="url(#paint0_radial_1870_28105)"/>
<path d="M7.60735 29.8938C6.44698 29.8809 5.29751 29.6681 4.20941 29.2647C3.41484 28.971 2.69594 28.5034 2.10529 27.8962C1.4964 27.3067 1.02814 26.5876 0.735294 25.7924C0.33228 24.7043 0.11976 23.5549 0.107059 22.3947C0.0179412 20.4659 0 19.8874 0 15C0 10.1126 0.0197059 9.53618 0.106176 7.60588C0.120418 6.44611 0.333201 5.29734 0.735294 4.20941C1.02957 3.41471 1.49716 2.69553 2.10412 2.10412C2.69404 1.49577 3.41327 1.02795 4.20853 0.735294C5.29663 0.331946 6.44609 0.119126 7.60647 0.106176C9.53588 0.0179412 10.1153 0 15 0C19.8847 0 20.4638 0.0197059 22.3941 0.106176C23.5542 0.120318 24.7033 0.333102 25.7915 0.735294C26.5864 1.02833 27.3054 1.496 27.8956 2.10382C28.5036 2.69419 28.9715 3.41341 29.2647 4.20853C29.6682 5.29661 29.8811 6.44608 29.8941 7.60647C29.9824 9.53677 30.0003 10.1147 30.0003 15.0006C30.0003 19.8865 29.9824 20.4644 29.8941 22.3947C29.8801 23.5549 29.6672 24.7041 29.2647 25.7924C28.9602 26.5815 28.4939 27.2982 27.8957 27.8962C27.2975 28.4943 26.5807 28.9604 25.7915 29.2647C24.7034 29.6681 23.5539 29.8811 22.3935 29.8941C20.465 29.9824 19.8853 30.0003 14.9994 30.0003C10.1135 30.0003 9.53559 29.9832 7.60706 29.8941" fill="url(#paint1_radial_1870_28105)"/>
<path d="M12.3531 14.9992C12.3531 14.4756 12.5084 13.9639 12.7993 13.5286C13.0902 13.0934 13.5036 12.7541 13.9873 12.5538C14.471 12.3535 15.0033 12.3012 15.5168 12.4034C16.0302 12.5056 16.5019 12.7577 16.872 13.1279C17.2422 13.4982 17.4942 13.9698 17.5963 14.4833C17.6984 14.9968 17.6459 15.529 17.4455 16.0126C17.245 16.4963 16.9057 16.9096 16.4703 17.2004C16.035 17.4912 15.5232 17.6464 14.9997 17.6463C14.2977 17.6462 13.6244 17.3672 13.1281 16.8708C12.6318 16.3744 12.353 15.7011 12.3531 14.9992ZM10.9219 14.9992C10.9219 15.8056 11.1611 16.594 11.6092 17.2645C12.0572 17.9351 12.6941 18.4577 13.4392 18.7663C14.1843 19.075 15.0042 19.1557 15.7952 18.9984C16.5862 18.841 17.3128 18.4527 17.883 17.8824C18.4533 17.3122 18.8417 16.5856 18.999 15.7947C19.1564 15.0037 19.0756 14.1838 18.767 13.4387C18.4583 12.6937 17.9357 12.0568 17.2651 11.6088C16.5945 11.1607 15.8062 10.9216 14.9997 10.9216C14.4642 10.9216 13.9339 11.027 13.4391 11.2319C12.9444 11.4368 12.4949 11.7372 12.1162 12.1158C11.7375 12.4945 11.4372 12.944 11.2323 13.4387C11.0274 13.9334 10.9219 14.4637 10.9219 14.9992ZM18.2858 10.76C18.2858 10.9485 18.3416 11.1327 18.4462 11.2895C18.5508 11.4462 18.6996 11.5684 18.8737 11.6406C19.0478 11.7128 19.2394 11.7318 19.4242 11.6951C19.6091 11.6584 19.7789 11.5677 19.9122 11.4345C20.0456 11.3013 20.1364 11.1316 20.1732 10.9468C20.2101 10.7619 20.1913 10.5703 20.1193 10.3962C20.0472 10.2221 19.9251 10.0732 19.7685 9.96842C19.6118 9.86365 19.4276 9.80768 19.2392 9.8076C18.9865 9.80771 18.7443 9.90808 18.5656 10.0867C18.387 10.2652 18.2865 10.5074 18.2863 10.76H18.2858ZM11.7918 21.4629C11.2883 21.4574 10.7894 21.3653 10.3171 21.1905C9.9746 21.0585 9.66352 20.8562 9.40391 20.5967C9.14429 20.3372 8.94188 20.0263 8.80972 19.6838C8.63489 19.2115 8.54274 18.7127 8.53729 18.2092C8.49873 17.3722 8.49118 17.1207 8.49118 15.0002C8.49118 12.8797 8.49956 12.6289 8.53729 11.7911C8.5434 11.2876 8.63553 10.7888 8.80972 10.3164C8.94173 9.97379 9.14407 9.66264 9.40371 9.40302C9.66334 9.1434 9.9745 8.94106 10.3171 8.80906C10.7894 8.63424 11.2883 8.54209 11.7918 8.53663C12.6288 8.49808 12.8803 8.49053 15.0001 8.49053C17.1198 8.49053 17.3715 8.49871 18.2094 8.53685C18.7129 8.54295 19.2116 8.63509 19.6841 8.80927C20.0267 8.94128 20.3378 9.14362 20.5975 9.40324C20.8571 9.66286 21.0594 9.974 21.1915 10.3166C21.3663 10.7889 21.4584 11.2877 21.4639 11.7913C21.5025 12.6295 21.51 12.8797 21.51 15.0004C21.51 17.1211 21.5023 17.3718 21.4639 18.2096C21.458 18.7131 21.3659 19.2119 21.1915 19.6842C21.0593 20.0267 20.8569 20.3377 20.5973 20.5972C20.3377 20.8567 20.0266 21.0589 19.6841 21.1909C19.2118 21.3657 18.7129 21.4579 18.2094 21.4634C17.3723 21.5019 17.1209 21.5095 15.0001 21.5095C12.8793 21.5095 12.6286 21.5017 11.7918 21.4634V21.4629ZM11.726 7.10683C11.0671 7.11978 10.4152 7.24449 9.79803 7.47564C9.27045 7.67962 8.79132 7.99159 8.39135 8.39154C7.99138 8.79149 7.6794 9.27061 7.47542 9.79816C7.24428 10.4153 7.11957 11.0672 7.10659 11.7261C7.0674 12.5727 7.05859 12.8434 7.05859 15C7.05859 17.1565 7.06761 17.4271 7.10659 18.2739C7.11957 18.9328 7.24428 19.5847 7.47542 20.2018C7.67941 20.7294 7.99139 21.2085 8.39136 21.6084C8.79133 22.0084 9.27046 22.3204 9.79803 22.5244C10.4152 22.7554 11.0671 22.8801 11.726 22.8932C12.5731 22.9317 12.8434 22.9412 15.0001 22.9412C17.1567 22.9412 17.4273 22.9322 18.2741 22.8932C18.933 22.8802 19.5849 22.7555 20.2021 22.5244C20.7297 22.3204 21.2088 22.0084 21.6088 21.6084C22.0087 21.2085 22.3207 20.7294 22.5247 20.2018C22.7562 19.5848 22.8809 18.9328 22.8936 18.2739C22.9321 17.4267 22.9409 17.1565 22.9409 15C22.9409 12.8434 22.9319 12.5729 22.8936 11.7261C22.8806 11.0672 22.7559 10.4153 22.5247 9.79816C22.3207 9.27071 22.0088 8.79167 21.609 8.39173C21.2091 7.99179 20.7302 7.67976 20.2027 7.47564C19.5856 7.24434 18.9337 7.11963 18.2747 7.10683C17.4279 7.06806 17.1573 7.05884 15.0011 7.05884C12.8449 7.05884 12.5737 7.06785 11.7264 7.10683" fill="white"/>
</g>
<defs>
<radialGradient id="paint0_radial_1870_28105" cx="0" cy="0" r="1" gradientUnits="userSpaceOnUse" gradientTransform="translate(1.94147 29.3429) scale(38.0888)">
<stop offset="0.09" stop-color="#FA8F21"/>
<stop offset="0.78" stop-color="#D82D7E"/>
</radialGradient>
<radialGradient id="paint1_radial_1870_28105" cx="0" cy="0" r="1" gradientUnits="userSpaceOnUse" gradientTransform="translate(20.78 28.3794) scale(33.5185)">
<stop offset="0.64" stop-color="#8C3AAA" stop-opacity="0"/>
<stop offset="1" stop-color="#8C3AAA"/>
</radialGradient>
<clipPath id="clip0_1870_28105">
<rect width="30" height="30" rx="15" fill="white"/>
</clipPath>
</defs>
</svg>
