<svg width="32" height="32" viewBox="0 0 32 32" fill="none" xmlns="http://www.w3.org/2000/svg">
<circle cx="16" cy="16" r="16" fill="#256FF6" fill-opacity="0.05"/>
<path d="M18.4284 23.7019H18.3309C15.0009 23.7019 13.3959 22.3894 13.1184 19.4494C13.0884 19.1419 13.3134 18.8644 13.6284 18.8344C13.9284 18.8044 14.2134 19.0369 14.2434 19.3444C14.4609 21.6994 15.5709 22.5769 18.3384 22.5769H18.4359C21.4884 22.5769 22.5684 21.4969 22.5684 18.4444V13.5544C22.5684 10.5019 21.4884 9.42188 18.4359 9.42188H18.3384C15.5559 9.42188 14.4459 10.3144 14.2434 12.7144C14.2059 13.0219 13.9434 13.2544 13.6284 13.2244C13.3134 13.2019 13.0884 12.9244 13.1109 12.6169C13.3659 9.63187 14.9784 8.29688 18.3309 8.29688H18.4284C22.1109 8.29688 23.6859 9.87188 23.6859 13.5544V18.4444C23.6859 22.1269 22.1109 23.7019 18.4284 23.7019Z" fill="#256FF6"/>
<path d="M18.2498 16.5625H9.71484C9.40734 16.5625 9.15234 16.3075 9.15234 16C9.15234 15.6925 9.40734 15.4375 9.71484 15.4375H18.2498C18.5573 15.4375 18.8123 15.6925 18.8123 16C18.8123 16.3075 18.5573 16.5625 18.2498 16.5625Z" fill="#256FF6"/>
<path d="M11.3856 19.0759C11.2431 19.0759 11.1006 19.0234 10.9881 18.9109L8.47563 16.3984C8.25813 16.1809 8.25813 15.8209 8.47563 15.6034L10.9881 13.0909C11.2056 12.8734 11.5656 12.8734 11.7831 13.0909C12.0006 13.3084 12.0006 13.6684 11.7831 13.8859L9.66813 16.0009L11.7831 18.1159C12.0006 18.3334 12.0006 18.6934 11.7831 18.9109C11.6781 19.0234 11.5281 19.0759 11.3856 19.0759Z" fill="#256FF6"/>
</svg>
