<svg width="40" height="40" viewBox="0 0 40 40" fill="none" xmlns="http://www.w3.org/2000/svg">
<path d="M8.33333 6.66675H18.3333C20.1743 6.66675 21.6667 8.15913 21.6667 10.0001C21.6667 11.841 20.1743 13.3334 18.3333 13.3334H8.33333C6.49238 13.3334 5 11.841 5 10.0001C5 8.15913 6.49238 6.66675 8.33333 6.66675Z" fill="#5DC9A0"/>
<path d="M8.33333 13.3333H18.3333C20.1743 13.3333 21.6667 14.8256 21.6667 16.6666C21.6667 18.5075 20.1743 19.9999 18.3333 19.9999H8.33333C6.49238 19.9999 5 18.5075 5 16.6666C5 14.8256 6.49238 13.3333 8.33333 13.3333Z" fill="#C3EBDC"/>
<path d="M8.33333 20H18.3333C20.1743 20 21.6667 21.4924 21.6667 23.3333C21.6667 25.1743 20.1743 26.6667 18.3333 26.6667H8.33333C6.49238 26.6667 5 25.1743 5 23.3333C5 21.4924 6.49238 20 8.33333 20Z" fill="#5DC9A0"/>
<path d="M8.33333 26.6667H18.3333C20.1743 26.6667 21.6667 28.1591 21.6667 30.0001C21.6667 31.841 20.1743 33.3334 18.3333 33.3334H8.33333C6.49238 33.3334 5 31.841 5 30.0001C5 28.1591 6.49238 26.6667 8.33333 26.6667Z" fill="#C3EBDC"/>
<path d="M31.6667 26.6667H21.6667C21.0799 26.6699 20.5045 26.8295 20 27.1291C21.5856 28.0345 22.137 30.0539 21.2315 31.6396C20.9385 32.1527 20.5132 32.578 20 32.8711C20.5045 33.1707 21.0799 33.3303 21.6667 33.3334H31.6667C33.5076 33.3334 35 31.841 35 30.0001C35 28.1591 33.5076 26.6667 31.6667 26.6667Z" fill="#5DC9A0"/>
<path d="M31.6667 20H21.6667C21.0799 20.0032 20.5045 20.1628 20 20.4623C21.5856 21.3678 22.137 23.3872 21.2315 24.9728C20.9385 25.486 20.5132 25.9113 20 26.2043C20.5045 26.5039 21.0799 26.6635 21.6667 26.6667H31.6667C33.5076 26.6667 35 25.1743 35 23.3333C35 21.4924 33.5076 20 31.6667 20Z" fill="#C3EBDC"/>
<path d="M31.6667 13.3333H21.6667C21.0799 13.3364 20.5045 13.496 20 13.7956C21.5856 14.701 22.137 16.7205 21.2315 18.3061C20.9385 18.8193 20.5132 19.2445 20 19.5376C20.5045 19.8372 21.0799 19.9968 21.6667 19.9999H31.6667C33.5076 19.9999 35 18.5075 35 16.6666C35 14.8256 33.5076 13.3333 31.6667 13.3333Z" fill="#5DC9A0"/>
</svg>
