<svg width="40" height="40" viewBox="0 0 40 40" fill="none" xmlns="http://www.w3.org/2000/svg">
<path d="M26.666 18.3332H13.3327C12.8327 18.3332 12.3327 18.1665 11.9993 17.6665C11.666 17.3332 11.666 16.8332 11.666 16.3332L13.3327 7.99984C13.4993 7.1665 14.166 6.6665 14.9993 6.6665H24.9993C25.8327 6.6665 26.4993 7.1665 26.666 7.99984L28.3327 16.3332C28.4993 16.8332 28.3327 17.3332 27.9993 17.6665C27.666 18.1665 27.166 18.3332 26.666 18.3332Z" fill="#5DC9A0"/>
<path d="M16.666 33.3332H3.33268C2.83268 33.3332 2.33268 33.1665 1.99935 32.6665C1.66602 32.1665 1.66602 31.8332 1.66602 31.3332L3.33268 22.9998C3.49935 22.1665 4.16602 21.6665 4.99935 21.6665H14.9993C15.8327 21.6665 16.4993 22.1665 16.666 22.9998L18.3327 31.3332C18.4993 31.8332 18.3327 32.3332 17.9993 32.6665C17.666 32.9998 17.166 33.3332 16.666 33.3332ZM36.666 33.3332H23.3327C22.8327 33.3332 22.3327 33.1665 21.9993 32.6665C21.666 32.3332 21.666 31.8332 21.666 31.3332L23.3327 22.9998C23.4993 22.1665 24.166 21.6665 24.9993 21.6665H34.9993C35.8327 21.6665 36.4993 22.1665 36.666 22.9998L38.3327 31.3332C38.4993 31.8332 38.3327 32.3332 37.9993 32.6665C37.666 33.1665 37.166 33.3332 36.666 33.3332Z" fill="#C3EBDC"/>
</svg>
