<svg width="25" height="25" viewBox="0 0 25 25" fill="none" xmlns="http://www.w3.org/2000/svg">
<circle cx="12.5" cy="12.5" r="12.5" fill="#A1AEB7"/>
<path d="M12.1706 13.8854L11.8706 11.0854V7.14258H13.4563V11.0854L13.142 13.8854H12.1706ZM12.6563 17.3997C12.323 17.3997 12.0325 17.2807 11.7849 17.0426C11.5468 16.795 11.4277 16.4997 11.4277 16.1569C11.4277 15.8235 11.5468 15.5331 11.7849 15.2854C12.0325 15.0378 12.323 14.914 12.6563 14.914C12.9992 14.914 13.2896 15.0378 13.5277 15.2854C13.7754 15.5331 13.8992 15.8235 13.8992 16.1569C13.8992 16.4997 13.7754 16.795 13.5277 17.0426C13.2896 17.2807 12.9992 17.3997 12.6563 17.3997Z" fill="white"/>
</svg>
