<svg width="37" height="37" viewBox="0 0 37 37" fill="none" xmlns="http://www.w3.org/2000/svg">
<circle cx="18.5" cy="18.5" r="18.5" fill="#A1B0BD"/>
<path d="M15.9815 23.5932C15.0301 26.4473 11.2246 26.4473 11.2246 26.4473C11.2246 26.4473 11.2246 22.6418 14.0787 21.6904" stroke="white" stroke-width="1.4" stroke-linecap="round" stroke-linejoin="round"/>
<path d="M24.545 16.9328L18.8368 22.641L15.0312 18.8355L20.7395 13.1272C22.901 10.9658 25.0625 10.9868 25.9843 11.1244C26.1262 11.1455 26.2576 11.2117 26.3591 11.3132C26.4606 11.4147 26.5268 11.546 26.5479 11.688C26.6855 12.6098 26.7065 14.7713 24.545 16.9328Z" stroke="white" stroke-width="1.4" stroke-linecap="round" stroke-linejoin="round"/>
<path d="M23.5928 17.8848V23.3144C23.5928 23.4027 23.5754 23.4902 23.5416 23.5718C23.5078 23.6535 23.4583 23.7276 23.3958 23.7901L20.6762 26.5097C20.5901 26.5958 20.4822 26.6569 20.3641 26.6866C20.246 26.7162 20.1221 26.7132 20.0055 26.6779C19.889 26.6426 19.7842 26.5764 19.7024 26.4862C19.6205 26.3961 19.5647 26.2854 19.5408 26.166L18.8359 22.6417" stroke="white" stroke-width="1.4" stroke-linecap="round" stroke-linejoin="round"/>
<path d="M19.7868 14.0791H14.3572C14.2689 14.0791 14.1814 14.0965 14.0998 14.1303C14.0182 14.1641 13.944 14.2137 13.8815 14.2761L11.1619 16.9958C11.0758 17.0819 11.0147 17.1897 10.985 17.3078C10.9554 17.426 10.9584 17.5499 10.9937 17.6664C11.029 17.783 11.0952 17.8877 11.1854 17.9696C11.2756 18.0514 11.3862 18.1073 11.5056 18.1311L15.0299 18.836" stroke="white" stroke-width="1.4" stroke-linecap="round" stroke-linejoin="round"/>
</svg>
