<svg width="37" height="37" viewBox="0 0 37 37" fill="none" xmlns="http://www.w3.org/2000/svg">
<circle cx="18.5" cy="18.5" r="18.5" fill="#A1B0BD"/>
<path d="M23.628 11.1895L20.0994 14.7181L20.5751 17.0966L22.9536 17.5723L26.4822 14.0437L26.4825 14.0435C26.9193 15.0745 27.0237 16.216 26.7814 17.3091C26.539 18.4023 25.9618 19.3926 25.1302 20.1424C24.2986 20.8921 23.2539 21.3639 22.1416 21.4921C21.0293 21.6204 19.9047 21.3986 18.9243 20.8577L18.9244 20.8575L14.2081 26.3177C13.8296 26.6959 13.3163 26.9082 12.7813 26.908C12.2462 26.9079 11.7331 26.6953 11.3548 26.3169C10.9764 25.9386 10.7638 25.4255 10.7637 24.8904C10.7635 24.3554 10.9758 23.8422 11.354 23.4636L16.8141 18.7473L16.814 18.7474C16.2731 17.767 16.0514 16.6424 16.1796 15.5301C16.3078 14.4178 16.7796 13.3731 17.5293 12.5415C18.2791 11.7099 19.2694 11.1327 20.3626 10.8904C21.4557 10.648 22.5972 10.7524 23.6282 11.1892L23.628 11.1895Z" stroke="white" stroke-width="2" stroke-linecap="round" stroke-linejoin="round"/>
</svg>
