<svg width="107" height="34" viewBox="0 0 107 34" fill="none" xmlns="http://www.w3.org/2000/svg">
<g clip-path="url(#clip0_1764_30409)">
<path d="M35.0343 7.76829C35.0444 9.09833 35.0343 9.10657 33.753 8.91097C29.9374 8.32831 27.0428 4.59758 27.3302 0.706264C27.4011 -0.251124 27.9982 0.020651 28.4678 0.0865358C32.164 0.60126 35.008 3.94285 35.0343 7.76829Z" fill="#5DC9A0"/>
<path d="M37.0181 10.7745C35.506 10.8033 35.423 10.6921 35.7955 9.13969C36.676 5.45838 39.5989 3.06182 43.2768 2.95682C44.1533 2.93211 44.5339 3.09889 44.4063 4.15098C43.9671 7.73964 40.7183 10.7065 37.0181 10.7745Z" fill="#5DC9A0"/>
</g>
<path d="M16.8724 11.3737C16.8724 11.2553 16.7765 11.1594 16.6581 11.1594H15.601C15.4826 11.1594 15.3867 11.2553 15.3867 11.3737V14.2283C14.8356 13.3143 14.0381 12.5563 13.0006 11.954C11.6922 11.1817 10.3117 10.7934 8.86209 10.7934C6.64613 10.7934 4.74192 11.593 3.16083 13.1852C1.57952 14.7554 0.785672 16.6508 0.785672 18.8598C0.785672 21.069 1.57959 22.9751 3.16028 24.5672L3.16137 24.5683C4.74281 26.1383 6.64688 26.9263 8.86209 26.9263C10.3107 26.9263 11.6698 26.5495 12.9356 25.7983C13.9573 25.1918 14.7751 24.4061 15.3867 23.4427V33.0002C15.3867 33.1186 15.4826 33.2146 15.601 33.2146H16.6581C16.7765 33.2146 16.8724 33.1186 16.8724 33.0002V11.3737ZM13.4975 14.1507L13.4987 14.1519C14.8038 15.488 15.4528 17.0649 15.4528 18.8931C15.4528 20.6992 14.8147 22.2654 13.5311 23.6016C12.2497 24.9134 10.7084 25.566 8.89512 25.566C7.10468 25.566 5.55098 24.9139 4.22423 23.5997C2.91941 22.2634 2.27141 20.6978 2.27141 18.8931C2.27141 17.0878 2.91982 15.5218 4.22546 14.1852C5.55306 12.8265 7.10644 12.1537 8.89512 12.1537C10.6847 12.1537 12.2151 12.816 13.4975 14.1507ZM69.2195 11.1594C69.1368 11.1594 69.0614 11.207 69.0259 11.2818L62.9756 24.0176L56.8931 11.2814C56.8575 11.2068 56.7822 11.1594 56.6997 11.1594H55.5435C55.4699 11.1594 55.4015 11.1971 55.3623 11.2593C55.323 11.3215 55.3183 11.3994 55.35 11.4658L62.6835 26.8706C62.7191 26.9453 62.7945 26.9929 62.8772 26.9928C62.9599 26.9927 63.0353 26.945 63.0707 26.8703L70.3712 11.4655C70.4027 11.3991 70.3979 11.3212 70.3586 11.2591C70.3194 11.197 70.251 11.1594 70.1775 11.1594H69.2195ZM74.4883 24.5318L74.4904 24.5339C76.0916 26.1466 77.9732 26.9595 80.1262 26.9595H80.4235C82.7116 26.9595 84.6623 26.0663 86.2643 24.2937C86.2999 24.2543 86.3196 24.2031 86.3196 24.15V22.4532C86.3196 22.3588 86.2579 22.2755 86.1676 22.2481C86.0773 22.2207 85.9797 22.2555 85.9272 22.334C85.2625 23.3274 84.4165 24.1255 83.3875 24.7302C82.3886 25.308 81.2484 25.5993 79.961 25.5993C78.7607 25.5993 77.4929 25.099 76.1543 24.065L86.3555 13.9213C86.4364 13.8408 86.4401 13.7112 86.364 13.6262C84.6972 11.7659 82.6917 10.8267 80.3574 10.8267C78.0346 10.8267 76.0743 11.624 74.491 13.2185C72.9106 14.7877 72.1158 16.6605 72.1158 18.8266C72.1158 20.9925 72.9104 22.8971 74.4883 24.5318ZM92.716 10.7601C91.6829 10.7601 90.8155 11.0502 90.1314 11.644C89.4687 12.2161 89.1322 12.9403 89.1322 13.8025C89.1322 14.6275 89.391 15.3628 89.9066 16.0002L89.9065 16.0003L89.9122 16.0068C90.4334 16.6002 91.0445 17.1129 91.7445 17.545L91.7444 17.5451L91.7514 17.5491C92.4547 17.9475 93.158 18.357 93.8613 18.7776C94.5458 19.187 95.1208 19.6809 95.5885 20.2589L95.5915 20.2626C96.061 20.8177 96.3006 21.5097 96.3006 22.3533C96.3006 23.1438 95.9414 23.8767 95.1827 24.5559L95.1805 24.558C94.4531 25.2278 93.5485 25.566 92.4517 25.566C91.5644 25.566 90.8101 25.3432 90.1789 24.9055C89.5463 24.4668 89.0235 23.8025 88.6171 22.8977C88.5757 22.8055 88.4755 22.7548 88.3767 22.7759C88.2778 22.7971 88.2072 22.8844 88.2072 22.9855V24.5825C88.2072 24.6185 88.2163 24.6539 88.2336 24.6855C88.609 25.3708 89.1927 25.9197 89.9724 26.3354L89.9724 26.3355L89.9791 26.3388C90.78 26.7306 91.6382 26.9263 92.5508 26.9263C93.9901 26.9263 95.2215 26.4526 96.2321 25.5041L96.2322 25.5039C97.2644 24.5336 97.7863 23.3577 97.7863 21.9874C97.7863 21.057 97.5199 20.2253 96.9861 19.4997C96.4857 18.7901 95.8708 18.2053 95.1425 17.7468C94.435 17.3014 93.7271 16.8892 93.019 16.5102C92.3498 16.1185 91.7697 15.6961 91.2772 15.2434C90.8263 14.8093 90.6179 14.3526 90.6179 13.8691C90.6179 13.3804 90.8083 12.973 91.2037 12.6345C91.6058 12.2902 92.0631 12.1204 92.5838 12.1204C93.577 12.1204 94.4074 12.604 95.0809 13.6214C95.1331 13.7003 95.2308 13.7356 95.3214 13.7083C95.4119 13.6811 95.4739 13.5977 95.4739 13.5031V12.139C95.4739 12.0857 95.4541 12.0343 95.4183 11.9949C94.6756 11.1767 93.7713 10.7601 92.716 10.7601ZM106.235 25.614C106.235 25.4956 106.139 25.3996 106.02 25.3996C104.799 25.3996 103.763 24.9779 102.901 24.1309C102.064 23.2875 101.643 22.2237 101.643 20.9227V12.5529H105.987C106.106 12.5529 106.202 12.457 106.202 12.3386V11.407C106.202 11.2886 106.106 11.1927 105.987 11.1927H101.643V5.35156C101.643 5.23319 101.547 5.13723 101.429 5.13723H100.372C100.253 5.13723 100.157 5.23319 100.157 5.35156V20.9227C100.157 22.6175 100.728 24.0277 101.874 25.1359L101.876 25.1374C103.018 26.2189 104.404 26.7599 106.02 26.7599C106.139 26.7599 106.235 26.6639 106.235 26.5456V25.614ZM75.5544 14.1865C76.8846 12.8467 78.3842 12.1869 80.0601 12.1869C81.6939 12.1869 83.1499 12.7165 84.4353 13.7818L75.1507 23.069C74.117 21.817 73.6016 20.3724 73.6016 18.7267C73.6016 17.0133 74.2476 15.5027 75.5544 14.1865Z" fill="#00325C" stroke="#00325C" stroke-width="0.428656" stroke-linejoin="round"/>
<path d="M21.9307 24.4975L21.9317 24.4985C23.4901 26.1136 25.362 26.9263 27.5366 26.9263H27.8339C30.0299 26.9263 31.9026 26.114 33.4398 24.4974C34.9739 22.8841 35.7451 20.9907 35.7451 18.8266C35.7451 16.6394 34.951 14.7554 33.3705 13.1858C31.8107 11.5925 29.9059 10.7935 27.6687 10.7935C25.4528 10.7935 23.5486 11.5931 21.9675 13.1853C20.3871 14.7545 19.5923 16.6274 19.5923 18.7934C19.5923 20.9583 20.3752 22.8626 21.9307 24.4975ZM32.3041 14.1508L32.3053 14.152C33.6105 15.4881 34.2594 17.065 34.2594 18.8932C34.2594 20.6993 33.6213 22.2655 32.3377 23.6017C31.0564 24.9135 29.515 25.5661 27.7018 25.5661C25.9113 25.5661 24.3576 24.914 23.0309 23.5998C21.7261 22.2635 21.0781 20.6979 21.0781 18.8932C21.0781 17.0879 21.7265 15.5219 23.0321 14.1853C24.3597 12.8266 25.9131 12.1537 27.7018 12.1537C29.4913 12.1537 31.0218 12.8161 32.3041 14.1508ZM39.9639 24.4975L39.9649 24.4985C41.5233 26.1136 43.3952 26.9263 45.5698 26.9263H45.8671C48.0631 26.9263 49.9358 26.114 51.473 24.4974C53.0071 22.8841 53.7783 20.9907 53.7783 18.8266C53.7783 16.6394 52.9842 14.7554 51.4037 13.1858C49.8439 11.5925 47.9391 10.7935 45.7019 10.7935C43.486 10.7935 41.5817 11.5931 40.0007 13.1853C38.4203 14.7545 37.6255 16.6274 37.6255 18.7934C37.6255 20.9583 38.4084 22.8626 39.9639 24.4975ZM50.3373 14.1508L50.3385 14.152C51.6437 15.4881 52.2926 17.065 52.2926 18.8932C52.2926 20.6993 51.6546 22.2654 50.371 23.6017C49.0896 24.9135 47.5482 25.5661 45.735 25.5661C43.9445 25.5661 42.3908 24.914 41.0641 23.5998C39.7592 22.2635 39.1112 20.6979 39.1112 18.8932C39.1112 17.0879 39.7596 15.5219 41.0653 14.1853C42.3929 12.8266 43.9463 12.1537 45.735 12.1537C47.5245 12.1537 49.0549 12.8161 50.3373 14.1508Z" fill="#5DC9A0" stroke="#5DC9A0" stroke-width="0.428656" stroke-linejoin="round"/>
<defs>
<clipPath id="clip0_1764_30409">
<rect width="17.1185" height="10.7783" fill="white" transform="translate(27.3105)"/>
</clipPath>
</defs>
</svg>
