<svg width="18" height="19" viewBox="0 0 18 19" fill="none" xmlns="http://www.w3.org/2000/svg">
<path d="M8.625 17.0327C4.3875 17.0327 0.9375 13.5827 0.9375 9.34521C0.9375 5.10771 4.3875 1.65771 8.625 1.65771C12.8625 1.65771 16.3125 5.10771 16.3125 9.34521C16.3125 13.5827 12.8625 17.0327 8.625 17.0327ZM8.625 2.78271C5.0025 2.78271 2.0625 5.73021 2.0625 9.34521C2.0625 12.9602 5.0025 15.9077 8.625 15.9077C12.2475 15.9077 15.1875 12.9602 15.1875 9.34521C15.1875 5.73021 12.2475 2.78271 8.625 2.78271Z" fill="#9BA3AE"/>
<path d="M16.5001 17.7828C16.3576 17.7828 16.2151 17.7303 16.1026 17.6178L14.6026 16.1178C14.3851 15.9003 14.3851 15.5403 14.6026 15.3228C14.8201 15.1053 15.1801 15.1053 15.3976 15.3228L16.8976 16.8228C17.1151 17.0403 17.1151 17.4003 16.8976 17.6178C16.7851 17.7303 16.6426 17.7828 16.5001 17.7828Z" fill="#9BA3AE"/>
</svg>
