<svg width="20" height="20" viewBox="0 0 20 20" fill="none" xmlns="http://www.w3.org/2000/svg">
<path d="M15.7844 4.51589L11.476 2.02422C10.651 1.54922 9.35937 1.54922 8.53437 2.02422L4.18438 4.53255C2.45938 5.69922 2.35938 5.87422 2.35938 7.73255V12.2576C2.35938 14.1159 2.45938 14.2992 4.21771 15.4826L8.52604 17.9742C8.94271 18.2159 9.47604 18.3326 10.001 18.3326C10.526 18.3326 11.0594 18.2159 11.4677 17.9742L15.8177 15.4659C17.5427 14.2992 17.6427 14.1242 17.6427 12.2659V7.73255C17.6427 5.87422 17.5427 5.69922 15.7844 4.51589Z" fill="white"/>
<path d="M10.0013 12.7077C11.4971 12.7077 12.7096 11.4951 12.7096 9.99935C12.7096 8.50358 11.4971 7.29102 10.0013 7.29102C8.50553 7.29102 7.29297 8.50358 7.29297 9.99935C7.29297 11.4951 8.50553 12.7077 10.0013 12.7077Z" fill="#5DC9A0"/>
</svg>
