<svg width="20" height="20" viewBox="0 0 20 20" fill="none" xmlns="http://www.w3.org/2000/svg">
<path opacity="0.4" d="M9.99935 18.3332C14.6017 18.3332 18.3327 14.6022 18.3327 9.99984C18.3327 5.39746 14.6017 1.6665 9.99935 1.6665C5.39698 1.6665 1.66602 5.39746 1.66602 9.99984C1.66602 14.6022 5.39698 18.3332 9.99935 18.3332Z" fill="#5DC9A0"/>
<path d="M12.4167 6.32522H7.75833L8.1 5.98353C8.34167 5.74186 8.34167 5.34186 8.1 5.1002C7.85834 4.85853 7.45834 4.85853 7.21667 5.1002L5.80834 6.50853C5.75 6.56686 5.70833 6.63352 5.675 6.70852C5.60833 6.85852 5.60833 7.03353 5.675 7.18353C5.70833 7.25853 5.75 7.32519 5.80834 7.38352L7.21667 8.79186C7.34167 8.91686 7.5 8.97521 7.65834 8.97521C7.81667 8.97521 7.975 8.91686 8.1 8.79186C8.34167 8.55019 8.34167 8.15019 8.1 7.90852L7.75833 7.56688H12.4167C12.8083 7.56688 13.125 7.88353 13.125 8.27519V9.75021C13.125 10.0919 13.4083 10.3752 13.75 10.3752C14.0917 10.3752 14.375 10.0919 14.375 9.75021V8.27519C14.375 7.20853 13.4917 6.32522 12.4167 6.32522Z" fill="#5DC9A0"/>
<path d="M14.325 12.8084C14.2917 12.7334 14.25 12.6667 14.1917 12.6084L12.7833 11.2001C12.5417 10.9584 12.1417 10.9584 11.9 11.2001C11.6583 11.4417 11.6583 11.8417 11.9 12.0834L12.2417 12.425H7.58334C7.19167 12.425 6.875 12.1084 6.875 11.7167V10.2417C6.875 9.90003 6.59167 9.6167 6.25 9.6167C5.90833 9.6167 5.625 9.90003 5.625 10.2417V11.7167C5.625 12.8 6.50834 13.675 7.58334 13.675H12.2417L11.9 14.0167C11.6583 14.2584 11.6583 14.6584 11.9 14.9001C12.025 15.0251 12.1833 15.0834 12.3417 15.0834C12.5 15.0834 12.6583 15.0251 12.7833 14.9001L14.1917 13.4917C14.25 13.4334 14.2917 13.3667 14.325 13.2917C14.3917 13.1334 14.3917 12.9584 14.325 12.8084Z" fill="#5DC9A0"/>
</svg>
