<svg width="71" height="70" viewBox="0 0 71 70" fill="none" xmlns="http://www.w3.org/2000/svg">
<g clip-path="url(#clip0_2427_35145)">
<path d="M57.7582 34.9513C57.6054 34.9513 57.4613 34.9906 57.3128 34.9949C57.6101 33.5437 57.7593 32.066 57.7582 30.5847C57.7582 18.5284 47.9813 8.75159 35.9251 8.75159C23.8689 8.75159 14.092 18.5284 14.092 30.5847C14.092 30.6589 14.1139 30.7288 14.1139 30.803C6.70809 31.8597 0.992188 38.1695 0.992188 45.8678C0.992188 49.9212 2.60237 53.8085 5.46852 56.6746C8.33467 59.5408 12.222 61.151 16.2753 61.151H27.2268C27.7957 61.151 28.3589 61.0389 28.8845 60.8212C29.41 60.6036 29.8875 60.2845 30.2898 59.8823C30.692 59.48 31.0111 59.0025 31.2288 58.477C31.4465 57.9514 31.5585 57.3881 31.5585 56.8193V43.6845H22.2925L35.9251 26.2181L49.5577 43.6845H40.2917V56.8193C40.2917 59.2122 42.2305 61.151 44.6234 61.151H57.7582C59.4785 61.151 61.1819 60.8121 62.7713 60.1538C64.3606 59.4955 65.8047 58.5306 67.0212 57.3141C68.2376 56.0977 69.2025 54.6536 69.8609 53.0642C70.5192 51.4749 70.858 49.7714 70.858 48.0511C70.858 46.3308 70.5192 44.6274 69.8609 43.038C69.2025 41.4487 68.2376 40.0046 67.0212 38.7881C65.8047 37.5717 64.3606 36.6068 62.7713 35.9484C61.1819 35.2901 59.4785 34.9513 57.7582 34.9513Z" fill="#00325C" fill-opacity="0.15"/>
</g>
<defs>
<clipPath id="clip0_2427_35145">
<rect width="69.8659" height="69.8659" fill="white" transform="translate(0.992188 0.0183105)"/>
</clipPath>
</defs>
</svg>
