<svg width="17" height="17" viewBox="0 0 17 17" fill="none" xmlns="http://www.w3.org/2000/svg">
<path d="M7.22731 1.64862C7.87095 0.814865 9.12905 0.814865 9.77269 1.64862C10.1774 2.17281 10.862 2.39527 11.4975 2.20905C12.5083 1.91285 13.5261 2.65234 13.5568 3.70518C13.576 4.36712 13.9992 4.94953 14.6228 5.17241C15.6146 5.5269 16.0034 6.72343 15.4093 7.5932C15.0358 8.14005 15.0358 8.85995 15.4093 9.4068C16.0034 10.2766 15.6146 11.4731 14.6228 11.8276C13.9992 12.0505 13.576 12.6329 13.5568 13.2948C13.5261 14.3477 12.5083 15.0872 11.4975 14.791C10.862 14.6047 10.1774 14.8272 9.77269 15.3514C9.12905 16.1851 7.87095 16.1851 7.22731 15.3514C6.82265 14.8272 6.13798 14.6047 5.50248 14.791C4.49171 15.0872 3.47388 14.3477 3.44323 13.2948C3.42396 12.6329 3.00082 12.0505 2.37723 11.8276C1.38539 11.4731 0.996614 10.2766 1.59066 9.4068C1.96416 8.85995 1.96415 8.14005 1.59066 7.5932C0.996614 6.72343 1.38539 5.5269 2.37723 5.17241C3.00082 4.94953 3.42396 4.36712 3.44323 3.70518C3.47388 2.65234 4.49171 1.91285 5.50248 2.20905C6.13798 2.39527 6.82265 2.17281 7.22731 1.64862Z" fill="#5DC9A0"/>
<path d="M6 9.5L7.5 11L11.5 7" fill="#5DC9A0"/>
<path d="M6 9.5L7.5 11L11.5 7" stroke="white" stroke-width="1.5" stroke-linecap="round" stroke-linejoin="round"/>
</svg>
