<svg width="16" height="16" viewBox="0 0 16 16" fill="none" xmlns="http://www.w3.org/2000/svg">
<path d="M5.5 6C5.10444 6 4.71776 6.1173 4.38886 6.33706C4.05996 6.55682 3.80362 6.86918 3.65224 7.23463C3.50087 7.60009 3.46126 8.00222 3.53843 8.39018C3.6156 8.77814 3.80608 9.13451 4.08579 9.41421C4.36549 9.69392 4.72186 9.8844 5.10982 9.96157C5.49778 10.0387 5.89992 9.99913 6.26537 9.84776C6.63082 9.69638 6.94318 9.44004 7.16294 9.11114C7.3827 8.78224 7.5 8.39556 7.5 8C7.5 7.46957 7.28929 6.96086 6.91421 6.58579C6.53914 6.21071 6.03043 6 5.5 6V6ZM5.5 9C5.30222 9 5.10888 8.94135 4.94443 8.83147C4.77998 8.72159 4.65181 8.56541 4.57612 8.38268C4.50043 8.19996 4.48063 7.99889 4.51922 7.80491C4.5578 7.61093 4.65304 7.43275 4.79289 7.29289C4.93275 7.15304 5.11093 7.0578 5.30491 7.01921C5.49889 6.98063 5.69996 7.00043 5.88268 7.07612C6.06541 7.15181 6.22159 7.27998 6.33147 7.44443C6.44135 7.60888 6.5 7.80222 6.5 8C6.5 8.26522 6.39464 8.51957 6.20711 8.70711C6.01957 8.89464 5.76522 9 5.5 9ZM10.5 6C10.1044 6 9.71776 6.1173 9.38886 6.33706C9.05996 6.55682 8.80362 6.86918 8.65224 7.23463C8.50087 7.60009 8.46126 8.00222 8.53843 8.39018C8.6156 8.77814 8.80608 9.13451 9.08579 9.41421C9.36549 9.69392 9.72186 9.8844 10.1098 9.96157C10.4978 10.0387 10.8999 9.99913 11.2654 9.84776C11.6308 9.69638 11.9432 9.44004 12.1629 9.11114C12.3827 8.78224 12.5 8.39556 12.5 8C12.5 7.46957 12.2893 6.96086 11.9142 6.58579C11.5391 6.21071 11.0304 6 10.5 6V6ZM10.5 9C10.3022 9 10.1089 8.94135 9.94443 8.83147C9.77998 8.72159 9.65181 8.56541 9.57612 8.38268C9.50043 8.19996 9.48063 7.99889 9.51922 7.80491C9.5578 7.61093 9.65304 7.43275 9.79289 7.29289C9.93275 7.15304 10.1109 7.0578 10.3049 7.01921C10.4989 6.98063 10.7 7.00043 10.8827 7.07612C11.0654 7.15181 11.2216 7.27998 11.3315 7.44443C11.4414 7.60888 11.5 7.80222 11.5 8C11.5 8.26522 11.3946 8.51957 11.2071 8.70711C11.0196 8.89464 10.7652 9 10.5 9Z" fill="white"/>
<path d="M14.5 6H14.45C14.3347 5.43532 14.0279 4.9278 13.5815 4.56335C13.135 4.19889 12.5763 3.99988 12 4H4C3.42367 3.99988 2.86501 4.19889 2.41855 4.56335C1.97209 4.9278 1.66527 5.43532 1.55 6H1.5C1.36739 6 1.24021 6.05268 1.14645 6.14645C1.05268 6.24021 1 6.36739 1 6.5V9.5C1 9.63261 1.05268 9.75979 1.14645 9.85355C1.24021 9.94732 1.36739 10 1.5 10H1.55C1.66527 10.5647 1.97209 11.0722 2.41855 11.4367C2.86501 11.8011 3.42367 12.0001 4 12H6.195C6.49194 12.0012 6.78255 11.9141 7.03 11.75L7.72 11.285C7.80216 11.2302 7.89873 11.2009 7.9975 11.2009C8.09627 11.2009 8.19283 11.2302 8.275 11.285L8.97 11.75C9.21745 11.9141 9.50806 12.0012 9.805 12H12C12.5763 12.0001 13.135 11.8011 13.5815 11.4367C14.0279 11.0722 14.3347 10.5647 14.45 10H14.5C14.6326 10 14.7598 9.94732 14.8536 9.85355C14.9473 9.75979 15 9.63261 15 9.5V6.5C15 6.36739 14.9473 6.24021 14.8536 6.14645C14.7598 6.05268 14.6326 6 14.5 6ZM13.5 9.5C13.5 9.89782 13.342 10.2794 13.0607 10.5607C12.7794 10.842 12.3978 11 12 11H9.805C9.70528 11.0002 9.60777 10.9706 9.525 10.915L8.83 10.455C8.58403 10.2916 8.2953 10.2044 8 10.2044C7.7047 10.2044 7.41597 10.2916 7.17 10.455L6.5 10.915C6.41723 10.9706 6.31972 11.0002 6.22 11H4C3.60218 11 3.22064 10.842 2.93934 10.5607C2.65804 10.2794 2.5 9.89782 2.5 9.5V6.5C2.5 6.10218 2.65804 5.72064 2.93934 5.43934C3.22064 5.15804 3.60218 5 4 5H12C12.3978 5 12.7794 5.15804 13.0607 5.43934C13.342 5.72064 13.5 6.10218 13.5 6.5V9.5Z" fill="white"/>
</svg>
