<svg width="29" height="29" viewBox="0 0 29 29" fill="none" xmlns="http://www.w3.org/2000/svg">
<path d="M26.5834 13.2554V15.7446C26.5834 16.4092 26.0518 16.9529 25.3751 16.9771H23.0067C21.7017 16.9771 20.5055 16.0225 20.3968 14.7175C20.3243 13.9563 20.6142 13.2433 21.1217 12.7479C21.5688 12.2888 22.1851 12.0229 22.8617 12.0229H25.3751C26.0518 12.0471 26.5834 12.5908 26.5834 13.2554Z" fill="#5DC9A0"/>
<path opacity="0.4" d="M21.122 12.748C20.6145 13.2434 20.3245 13.9563 20.397 14.7176C20.5057 16.0226 21.702 16.9771 23.007 16.9771H25.3753V18.7292C25.3753 22.3542 22.9587 24.7709 19.3337 24.7709H8.45866C4.83366 24.7709 2.41699 22.3542 2.41699 18.7292V10.2709C2.41699 6.98425 4.39866 4.68841 7.47991 4.30175C7.79408 4.25341 8.12033 4.22925 8.45866 4.22925H19.3337C19.6478 4.22925 19.9499 4.24132 20.2399 4.28965C23.3574 4.65215 25.3753 6.96008 25.3753 10.2709V12.023H22.862C22.1853 12.023 21.5691 12.2888 21.122 12.748Z" fill="#5DC9A0"/>
<path d="M15.708 11.7812H8.45801C7.96259 11.7812 7.55176 11.3704 7.55176 10.875C7.55176 10.3796 7.96259 9.96875 8.45801 9.96875H15.708C16.2034 9.96875 16.6143 10.3796 16.6143 10.875C16.6143 11.3704 16.2034 11.7812 15.708 11.7812Z" fill="#5DC9A0"/>
</svg>
