<svg width="20" height="20" viewBox="0 0 20 20" fill="none" xmlns="http://www.w3.org/2000/svg">
<path d="M18.3327 9.99992V14.1666C18.3327 16.6666 16.666 18.3333 14.166 18.3333H5.83268C3.33268 18.3333 1.66602 16.6666 1.66602 14.1666V9.99992C1.66602 7.73325 3.03268 6.14992 5.15768 5.88325C5.37435 5.84992 5.59935 5.83325 5.83268 5.83325H14.166C14.3827 5.83325 14.591 5.84158 14.791 5.87491C16.941 6.12491 18.3327 7.71659 18.3327 9.99992Z" fill="white"/>
<path d="M14.7915 5.87508C14.5915 5.84175 14.3832 5.83342 14.1665 5.83342H5.8332C5.59987 5.83342 5.37487 5.85009 5.1582 5.88342C5.27487 5.65009 5.44154 5.43342 5.64154 5.23342L8.34987 2.51675C9.49154 1.38341 11.3415 1.38341 12.4832 2.51675L13.9415 3.99176C14.4749 4.51676 14.7582 5.18341 14.7915 5.87508Z" fill="#9EDFC6"/>
<path d="M18.3327 10.4167H15.8327C14.916 10.4167 14.166 11.1667 14.166 12.0834C14.166 13.0001 14.916 13.7501 15.8327 13.7501H18.3327" fill="#9EDFC6"/>
</svg>
